<svg xmlns="http://www.w3.org/2000/svg" width="87.324" height="90.44" viewBox="0 0 87.324 90.44"><defs><style>.a,.b{fill:#040505;}.a,.g{stroke-miterlimit:10;}.c,.w{fill:#ded909;}.d{fill:#1a1818;}.e{fill:#400b0d;}.f,.x{fill:#980c19;}.g{fill:#60060e;}.h{fill:#f0f0f0;}.i{fill:#fff;}.j{fill:#ffe600;}.k{fill:#278134;}.l{fill:#47a836;}.m{fill:#f77b0c;}.n{fill:#13411e;}.o{fill:#195729;}.p{fill:#536672;}.q{fill:#e60019;}.r{fill:#0d1610;}.s{fill:#678093;}.t{fill:#703014;}.u{fill:#868686;}.v,.w,.x{stroke:none;}</style></defs><g transform="translate(0 0)"><g class="a" transform="translate(-22.979 -34.989)"><path class="v" d="M 99.81111145019531 109.4543838500977 L 98.63299560546875 109.0715789794922 C 92.89281463623047 107.2064743041992 87.28228759765625 105.7757415771484 81.95726776123047 104.8191299438477 C 76.23287200927734 103.7907791137695 70.61445617675781 103.2693710327148 65.25806427001953 103.2693710327148 C 61.18906402587891 103.2693710327148 57.15320587158203 103.5695037841797 53.2625846862793 104.1614303588867 C 49.21541595458984 104.7771835327148 45.19744491577148 105.7280807495117 41.32027435302734 106.9877243041992 L 40.14218521118164 107.3704605102539 L 40.14218521118164 106.1317596435547 C 40.14218521118164 103.6717224121094 39.8599739074707 101.7555923461914 39.56120681762695 99.72695922851562 C 39.2661247253418 97.72346496582031 38.96100616455078 95.65176391601562 38.96100616455078 93.05988311767578 L 38.96100616455078 92.40599060058594 L 39.5828857421875 92.20393371582031 C 49.22286605834961 89.07169342041016 59.25010681152344 87.48351287841797 69.38605499267578 87.48351287841797 C 79.52200317382812 87.48351287841797 89.54924774169922 89.07169342041016 99.18923187255859 92.20393371582031 L 99.81111145019531 92.40599060058594 L 99.81111145019531 93.05988311767578 L 99.81111145019531 108.2156295776367 L 99.81111145019531 109.4543838500977 Z"/><path class="w" d="M 98.91111755371094 108.2156295776367 L 98.91111755371094 93.05987548828125 C 89.31624603271484 89.94229888916016 79.35115051269531 88.38351440429688 69.38605499267578 88.38351440429688 C 59.42095947265625 88.38351440429688 49.45586776733398 89.94229888916016 39.86100769042969 93.05987548828125 C 39.86100769042969 98.11179351806641 41.04218292236328 101.0798416137695 41.04218292236328 106.1317596435547 C 49.07694625854492 103.5213775634766 57.16220092773438 102.3693695068359 65.258056640625 102.3693695068359 C 76.49784088134766 102.3693695068359 87.75614929199219 104.5911407470703 98.91111755371094 108.2156295776367 M 100.7111129760742 110.6931228637695 L 98.35488128662109 109.9275360107422 C 92.65348815917969 108.0750274658203 87.08299255371094 106.6543502807617 81.79812622070312 105.704963684082 C 76.1260986328125 104.6860198974609 70.56121826171875 104.1693725585938 65.258056640625 104.1693725585938 C 61.23421859741211 104.1693725585938 57.24390029907227 104.466064453125 53.39794921875 105.0511932373047 C 49.39905548095703 105.6596069335938 45.42910385131836 106.5991287231445 41.59836196899414 107.8436813354492 L 39.24218368530273 108.6091690063477 L 39.24218368530273 106.1317596435547 C 39.24218368530273 103.7376403808594 38.96464157104492 101.8531951904297 38.67080688476562 99.85809326171875 C 38.37100982666016 97.82254028320312 38.06100845336914 95.71767425537109 38.06100845336914 93.05987548828125 L 38.06100845336914 91.75209808349609 L 39.30477142333984 91.34796905517578 C 49.03471374511719 88.18651580810547 59.15551376342773 86.58351135253906 69.38605499267578 86.58351135253906 C 79.61659240722656 86.58351135253906 89.73741149902344 88.18651580810547 99.46734619140625 91.34796905517578 L 100.7111129760742 91.75209808349609 L 100.7111129760742 93.05987548828125 L 100.7111129760742 108.2156295776367 L 100.7111129760742 110.6931228637695 Z"/></g><g transform="translate(17.843 20.629)"><path class="b" d="M70.966,99.123a28.8,28.8,0,1,1,28.8-28.8A28.836,28.836,0,0,1,70.966,99.123Z" transform="translate(-41.545 -40.898)"/><path class="c" d="M70.683,41.85A28.186,28.186,0,1,1,42.5,70.036,28.187,28.187,0,0,1,70.683,41.85m0-1.235A29.421,29.421,0,1,0,100.1,70.036,29.455,29.455,0,0,0,70.683,40.615Z" transform="translate(-41.262 -40.615)"/></g><g transform="translate(21.899)"><path class="b" d="M53.6,78.626a28.607,28.607,0,0,1-3.388-8.593,21.931,21.931,0,0,1-.488-6.127l-1.3,1.516-.21-1.32c-.055-.344-1.237-8.272,4.343-14.376a7.433,7.433,0,0,1-.881-2.609l-.238-1.208.475.228a7.073,7.073,0,0,1,1.969-2.077,8.445,8.445,0,0,0,1-.923,17.248,17.248,0,0,1,5.791-4.061A8.949,8.949,0,0,1,59.3,34.033l.029-1.012.887.49a5.882,5.882,0,0,0,2.515.611,4.018,4.018,0,0,0,3.043-1.338c-.182-.405-.487-1.122-.82-2.069a23.877,23.877,0,0,1-1.324-11.46l.254-1.535.867,1.292a44.576,44.576,0,0,0,7.94,8.823,17.789,17.789,0,0,1,1.065-4.14l.537-1.307.595,1.281a22.872,22.872,0,0,0,2.61,4.128,11.922,11.922,0,0,1,.406-5.24l.676-1.879.5,1.934a9.508,9.508,0,0,0,.665,1.7A16.214,16.214,0,0,1,85.865,13.5l1.2-.917-.3,2.045c-.073.508-.131,1.032-.171,1.563a28.019,28.019,0,0,0,.121,5.4,25.9,25.9,0,0,0,1.029,4.8l.084.265c.7,2.186,1.414,4.447,3.494,5.486a10.813,10.813,0,0,0,1.242.5c.366.13.746.263,1.119.431A4.529,4.529,0,0,1,95.534,34.7a5.234,5.234,0,0,1,.75,4.507,6.233,6.233,0,0,0,1.775,3.858,5.227,5.227,0,0,1,4.042,3.148c1.14,2.43.257,3.873-.26,4.446a5.507,5.507,0,0,1-3.119,5.877A13.069,13.069,0,0,1,93.609,57.8a9.752,9.752,0,0,1-7.126,4.923l-.76.084.078-.761c.09-.881.113-3.4-.849-4.467a1.456,1.456,0,0,0-1.141-.49,2.312,2.312,0,0,0-.244.013c-.357.038-.569.506-.665.782-.682,1.975.164,6.7,4.147,10.569l.676.656L74.789,74.4l.524.571-2.2.117-7.374,3.016-11.946.829Z" transform="translate(-47.457 -11.182)"/><path class="c" d="M85.957,13.348c-.018.129-.071.471-.082.551-.078.532-.135,1.067-.176,1.6a28.693,28.693,0,0,0,.123,5.518,26.415,26.415,0,0,0,1.054,4.92c.757,2.371,1.489,4.915,3.89,6.116.767.383,1.6.588,2.385.938a3.928,3.928,0,0,1,1.591,1.41,4.6,4.6,0,0,1,.637,4.069,6.755,6.755,0,0,0,2.128,4.545,4.556,4.556,0,0,1,3.751,2.814c1.293,2.756-.369,3.972-.369,3.972a4.875,4.875,0,0,1-2.737,5.544,12.705,12.705,0,0,1-5.208,1.22s-2.122,4.384-6.812,4.9c0,0,.582-5.638-2.6-5.638a3.028,3.028,0,0,0-.309.016c-2.22.236-2.332,7.114,3.118,12.407l-3.164,1.3-2.24.916-7.481,3.059c.079.088.158.175.236.261l-1,.053-7.379,3.018-11.481.8a28.25,28.25,0,0,1-3.3-8.39,20.3,20.3,0,0,1-.222-7.962l-1.766,2.064s-1.322-8.322,4.636-14.332h-.013c-.093,0-.658-.11-1.164-2.677l.005,0c.056,0-.267-.71,1.975-2.453a9.017,9.017,0,0,0,1.069-.99,16.279,16.279,0,0,1,6.311-4.19,8.127,8.127,0,0,1-1.728-5.317,6.434,6.434,0,0,0,2.812.688,4.674,4.674,0,0,0,3.772-1.855,22.745,22.745,0,0,1-.965-2.375,23.444,23.444,0,0,1-1.3-11.155s4.331,6.46,8.95,9.6a18.227,18.227,0,0,1,1.139-5.03,21.782,21.782,0,0,0,4.16,5.859s-1.089-4,0-7.021a8.737,8.737,0,0,0,1.751,3.341,15.964,15.964,0,0,1,6.007-12.118M87.6,10.541l-2.4,1.825A16.453,16.453,0,0,0,79.287,21.4l-.892-3.463-1.357,3.771a10.511,10.511,0,0,0-.553,3.386,21.386,21.386,0,0,1-1.323-2.326L73.97,20.209,72.9,22.819a17.117,17.117,0,0,0-.929,3.225,46.356,46.356,0,0,1-6.992-8.017l-1.733-2.584-.51,3.069a24.484,24.484,0,0,0,1.351,11.767c.248.71.484,1.3.665,1.722a3.342,3.342,0,0,1-2.307.863,5.2,5.2,0,0,1-2.216-.534l-1.773-.98L58.4,33.374a9.609,9.609,0,0,0,1.117,4.78,17.948,17.948,0,0,0-5.37,3.923,7.845,7.845,0,0,1-.923.857A9.321,9.321,0,0,0,51.4,44.7l-1.088-.52.475,2.413a9.827,9.827,0,0,0,.731,2.41c-5.435,6.274-4.253,14.2-4.2,14.552l.419,2.64,1.039-1.213a23.611,23.611,0,0,0,.543,4.537,29.326,29.326,0,0,0,3.471,8.8l.4.618.731-.051,11.481-.8.2-.014L65.782,78l7.186-2.939.788-.042,2.609-.138L75.558,74l5.844-2.39,2.24-.916,3.164-1.3,1.745-.715L87.2,67.369c-3.1-3.012-4.323-6.7-4.16-9.02a2.282,2.282,0,0,1,.36-1.278c.045,0,.088-.005.132-.005a.838.838,0,0,1,.681.286c.745.824.79,3.046.694,3.992l-.152,1.519L86.27,62.7a10.3,10.3,0,0,0,7.423-4.946,13.355,13.355,0,0,0,5.035-1.312,6.14,6.14,0,0,0,3.489-6.259c.609-.81,1.312-2.42.161-4.874a5.881,5.881,0,0,0-4.3-3.461,5.648,5.648,0,0,1-1.449-3.213,5.892,5.892,0,0,0-.864-4.924,5.158,5.158,0,0,0-2.11-1.843c-.394-.176-.785-.315-1.164-.449a10.292,10.292,0,0,1-1.172-.466c-1.846-.923-2.495-2.963-3.181-5.122l-.085-.265a25.3,25.3,0,0,1-1-4.689,27.457,27.457,0,0,1-.119-5.281c.039-.515.095-1.025.166-1.516.007-.048.022-.147.038-.251l.045-.3.425-2.982Z" transform="translate(-47.175 -10.541)"/></g><g transform="translate(0 3.338)"><path class="d" d="M66.2,83.931,50.59,78.508,33.223,88.075,16.342,72.249l9.837-20.943,19.675,2.47L58.332,42.989l.395-19.827,22.146-6.7,13.22,18.987L82.126,51.23l3.119,16.213L102.214,77.7,96.948,100.23l-23.054,1.956Z" transform="translate(-15.592 -15.737)"/><path class="c" d="M80.278,16.848,92.987,35.1,81.125,50.746,84.347,67.5l16.82,10.17L96.106,99.323,73.945,101.2l-7.623-18.1L52.633,78.354h0L50.191,77.5,32.974,86.988,16.748,71.775,26.2,51.644l19.5,2.449L52.633,48.1h0L58.6,42.946l.391-19.653,21.287-6.444m.5-1.441-.858.26L58.634,22.111l-.859.26-.018.9-.381,19.1-5.551,4.8L45.315,52.8l-18.957-2.38-.89-.112-.382.812L15.63,71.25l-.381.812.655.613L32.13,87.888l.654.614.786-.433L50.3,78.852l1.923.669L65.4,84.094l7.409,17.588.348.827.894-.076,22.161-1.879.894-.076.2-.873,5.061-21.654.2-.873-.768-.464-16.35-9.886L82.441,51.054,93.97,35.846l.542-.715L94,34.394,81.292,16.143l-.513-.736Z" transform="translate(-15.249 -15.407)"/><g transform="translate(4.177 3.96)"><path class="e" d="M73.017,82.469,53.01,75.52,36.93,84.378,25.587,73.742,32.2,59.669l18.215,2.289,16-13.831.364-18.358,14.881-4.5L90.54,38.025,79.463,52.638,83.456,73.42l15.713,9.5L95.63,98.055,80.137,99.37Z" transform="translate(-22.672 -22.463)"/><path class="f" d="M79.35,26.785l6.889,9.9-9.377,12.37L75.57,50.758l.4,2.1,3.589,18.683.4,2.1,1.828,1.105L95.1,82.789,92.354,94.527l-12.016,1.02L74.31,81.239l-.83-1.971-2.019-.7L56.12,73.239l-.644-.224-2-.7-2.019-.7L49.581,72.65l-13.615,7.5-8.8-8.25,5.127-10.915,15.424,1.938,2.122.266,1.617-1.4,5.588-4.83.641-.554,8.154-7.048,1.618-1.4.043-2.139.308-15.544L79.35,26.785M81.3,21.18,63.077,26.694,62.7,45.727l-8.154,7.048h0l-.644.558-5.584,4.826L29.432,55.787,21.338,73.016,35.227,86.039,51.9,76.856l2,.7.644.224h0L69.885,83.1l7.382,17.524,18.969-1.61,4.333-18.532L84.277,70.635,80.689,51.952,92.172,36.8,81.3,21.18Z" transform="translate(-21.338 -21.18)"/></g></g><ellipse class="b" cx="28.187" cy="28.187" rx="28.187" ry="28.187" transform="translate(19.078 21.863)"/><ellipse class="f" cx="26.034" cy="26.034" rx="26.034" ry="26.034" transform="translate(21.23 24.016)"/><ellipse class="e" cx="22.771" cy="22.771" rx="22.771" ry="22.771" transform="translate(24.494 27.279)"/><ellipse class="b" cx="20.022" cy="20.022" rx="20.022" ry="20.022" transform="translate(27.242 30.028)"/><g class="g" transform="translate(-23.711 -30.171)"><path class="v" d="M42.965,73.045l3.515.372s-.629,4.744-.772,4.8-3.515-.429-3.515-.429Z"/><path class="x" d="M 42.96468353271484 73.04500579833984 L 46.4801025390625 73.41677093505859 C 46.4801025390625 73.41677093505859 45.85110092163086 78.16071319580078 45.70842742919922 78.21831512451172 C 45.70049285888672 78.22146606445312 45.68262481689453 78.22296142578125 45.65602111816406 78.22296142578125 C 45.20201873779297 78.22296142578125 42.19300842285156 77.78962707519531 42.19300842285156 77.78962707519531 L 42.96468353271484 73.04500579833984 Z"/></g><path class="e" d="M47.776,80.855l-6.551-.882L39.052,88.99l1.05,8.435,2.572,2.422,10.16-2.829L49.191,86.943Z" transform="translate(-22.725 -32.347)"/><path class="f" d="M43.766,108.948,38.6,104.04l-1.329,5.316,3.151,3.022,2.7-.75Z" transform="translate(-22.165 -39.906)"/><path class="f" d="M127.435,102.172l-4.057-2.413-.482,5.252,4.073,2.519Z" transform="translate(-49.057 -38.561)"/><path class="f" d="M96.509,120.757,94.74,116.42l4.635-1.953,2.46,5.916Z" transform="translate(-40.214 -43.18)"/><path class="e" d="M102.961,116.2l-3.544-9.089,8.917-6.059,11.261,6.884-1.658,7.292Z" transform="translate(-41.683 -38.967)"/><g transform="translate(23.14 2.807)"><path class="b" d="M101.459,51.087a4.875,4.875,0,0,1-2.737,5.544,12.705,12.705,0,0,1-5.208,1.22s-2.122,4.384-6.812,4.9c0,0,.619-6-2.913-5.622-2.22.236-2.332,7.114,3.118,12.407l-3.164,1.3-2.24.916-7.48,3.059c.078.088.157.175.235.261l-1,.053-7.379,3.018-11.481.8a28.239,28.239,0,0,1-3.3-8.39,20.29,20.29,0,0,1-.223-7.962l-1.766,2.064s-1.322-8.322,4.636-14.332a6.7,6.7,0,0,1-3.266-4.2c.08.039,1.768.866,4.07-.923a9.017,9.017,0,0,0,1.069-.99,16.279,16.279,0,0,1,6.311-4.19A8.127,8.127,0,0,1,60.2,34.7s3.9,2.157,6.584-1.167a22.746,22.746,0,0,1-.965-2.375A23.444,23.444,0,0,1,64.52,20s4.331,6.46,8.95,9.6a18.228,18.228,0,0,1,1.139-5.03,21.782,21.782,0,0,0,4.16,5.859s-1.089-4,0-7.021a8.737,8.737,0,0,0,1.751,3.341,15.964,15.964,0,0,1,6.007-12.118,2,2,0,0,0-.082.551c-.078.532-.135,1.067-.176,1.6a28.694,28.694,0,0,0,.123,5.518,26.416,26.416,0,0,0,1.054,4.92c.757,2.371,1.488,4.915,3.89,6.116.767.383,1.6.588,2.385.938a3.928,3.928,0,0,1,1.591,1.41,4.6,4.6,0,0,1,.637,4.069A6.755,6.755,0,0,0,98.076,44.3a4.556,4.556,0,0,1,3.751,2.814C103.121,49.871,101.459,51.087,101.459,51.087Z" transform="translate(-48.984 -14.633)"/><path class="h" d="M104.7,34.53a15.414,15.414,0,0,1-4.778-1.96,14.21,14.21,0,0,1-2.55-2,14.187,14.187,0,0,1,2.935-12.236l0,0S99.887,29.947,104.7,34.53Z" transform="translate(-64.069 -15.795)"/><path class="i" d="M106.806,69.821a3.036,3.036,0,0,1-1.8.623h0a2.517,2.517,0,0,0,.569-1.775l.681.637Z" transform="translate(-66.578 -31.604)"/><path class="i" d="M103,66.374l-1.3.709.342-1.541a1.932,1.932,0,0,1,.692.45A1.215,1.215,0,0,1,103,66.374Z" transform="translate(-65.541 -30.621)"/><path class="j" d="M99.877,52.9a2.722,2.722,0,0,0,1.158,1.3c.724.289,1.851.09,2.759.585A3.822,3.822,0,0,0,99.877,52.9Z" transform="translate(-64.968 -26.646)"/><path class="k" d="M72.274,90.018c.5,1.006.842,1.579.842,1.579l-4.046.344-2.226.189a14.59,14.59,0,0,1-2.233-7,17.939,17.939,0,0,0,3,4.125,16.247,16.247,0,0,1-1.9-10.187A12.006,12.006,0,0,0,66.737,82.2s-.427-10.356,5.853-16.39A20.2,20.2,0,0,0,68.937,78.46,33.1,33.1,0,0,0,72.274,90.018Z" transform="translate(-53.892 -30.707)"/><path class="k" d="M81.826,91.781l-1,.053-.2.01-1.43.077L77.765,92s-6.652-8.211-4.1-16.734a15.527,15.527,0,0,0,1.6,7.262c-.056-.239-1.7-7.545,4.269-14.667l.018-.021c-.017.033-.117.256-.272.634-1.158,2.837-5.229,14.537,2.312,23.049C81.669,91.609,81.748,91.7,81.826,91.781Z" transform="translate(-56.552 -31.342)"/><path class="l" d="M97.278,90.666l-2.24.916c-6.272-7.553-.652-13.591-.447-13.807-3.682,5.978.536,11.378.536,11.378a8.251,8.251,0,0,1-.292-3.28A8.75,8.75,0,0,0,97.278,90.666Z" transform="translate(-62.519 -34.464)"/><path class="m" d="M91.925,73.764l-1.458,1.363-4.179.265-1.433-3.516a8.99,8.99,0,0,1,1.8-2.43s.009,0,.017.014c.141.213.984,2.537.984,2.537l.274,2.19.224-1.666Z" transform="translate(-60.249 -31.847)"/><path class="m" d="M87.466,83.08l-2.492,1.507-3.3-5.6a8.709,8.709,0,0,1,1.245-3.75l3.109,6.336-.319-2.5,2.262.086A5.868,5.868,0,0,0,87.466,83.08Z" transform="translate(-59.251 -33.668)"/><path class="m" d="M88.9,92.007l-1.33,3.223s-3.716-1.805-5.485-4.206a19.653,19.653,0,0,1-.746-5.87l5.621,6.866-1.2-3L87.42,87.5A10.958,10.958,0,0,0,88.9,92.007Z" transform="translate(-59.138 -36.781)"/><g transform="translate(2.094 19.872)"><path class="n" d="M80.756,52.553c-4.614,1.331-4.571,2.851-6.77,4.03a7.88,7.88,0,0,1-.977.438,6.257,6.257,0,0,1-2.971.32,9.175,9.175,0,0,1-3.572-1.272h0c2.631.182,5.356-3.391,7.718-5.086a5.3,5.3,0,0,1,1.342-.736C78.157,49.36,80.756,52.553,80.756,52.553Z" transform="translate(-56.568 -45.64)"/><path class="n" d="M73.337,60.359a22.023,22.023,0,0,0-3.806,3.576A24.419,24.419,0,0,0,67.48,66.7l-.008,0a7.646,7.646,0,0,1-4.027.235,4.227,4.227,0,0,1-1.1-.463h0a9.327,9.327,0,0,0,4.587-2.672,12.708,12.708,0,0,0,1.582-1.934c.071-.106.141-.215.211-.325C68.724,61.546,70.2,62.29,73.337,60.359Z" transform="translate(-55.274 -48.865)"/><path class="n" d="M61.445,56.615a3.744,3.744,0,0,0,.44.653,5.344,5.344,0,0,0,.9.868A5.787,5.787,0,0,0,65.167,59.2l.171.032s-.053.058-.156.156A7.716,7.716,0,0,1,62.9,60.85c-1.818.759-4.559,1.087-7.905-1.044h0a4.275,4.275,0,0,0,3.617-1.731c1.586-1.978,2.843-4.492,8.24-4.7C66.85,53.377,65.609,55.768,61.445,56.615Z" transform="translate(-52.965 -46.673)"/><path class="n" d="M59.291,69.573c.132.034.214.047.214.047a7.037,7.037,0,0,0-1.058,1.761,15.858,15.858,0,0,0-.584,1.507,18.8,18.8,0,0,0-5.825,3.12h0c.977-4.8,3.122-7.812,4.41-8.848a4.016,4.016,0,0,1,2.578-.562,10.367,10.367,0,0,1,1.693.217,9.594,9.594,0,0,1-2.289,1.267c-.523.216-.9.337-.9.337a1.632,1.632,0,0,0,.48.567A3.637,3.637,0,0,0,59.291,69.573Z" transform="translate(-52.037 -50.823)"/><path class="n" d="M65.169,71.517s-.246.39-.584,1.054a19.944,19.944,0,0,0-1.6,4.217,6.3,6.3,0,0,1-3.192,2.259A19.46,19.46,0,0,1,62.455,72.3a8.029,8.029,0,0,1,.536-.664c.045-.051.091-.1.138-.15A5.849,5.849,0,0,0,65.169,71.517Z" transform="translate(-54.473 -52.361)"/><path class="n" d="M60.311,83.655a7.274,7.274,0,0,0,1.926-1.274,41.127,41.127,0,0,0-.983,4.727,9.5,9.5,0,0,1-.8,2.846S59.93,85.161,60.311,83.655Z" transform="translate(-54.592 -55.782)"/><path class="n" d="M57.8,82.432s.34,5.946-1.147,9.01c0,0-1.219-1.129-1.864-4.481l.724,1.015a13.984,13.984,0,0,1-.656-2.161,8.255,8.255,0,0,1-.175-2.851c.052-.353.1-.681.157-.989.3-1.632.807-2.668,3.2-3.733a18.889,18.889,0,0,1-1.655,4.483A1.786,1.786,0,0,0,57.8,82.432Z" transform="translate(-52.848 -54.482)"/><path class="n" d="M75.646,46.193s-1.887,1.549-2.639,2.213c-.084.073-.153.136-.2.184-.517.489-1.852.355-3.521.083s-2.141-3.346-2.141-3.346c3.026,1.181,6.189-1.724,6.189-1.724l1.288,1.441.364.407Z" transform="translate(-56.781 -43.603)"/></g><path class="h" d="M83.389,37.907A13.2,13.2,0,0,1,84.5,44.139c-1.511-2.192-2.506-.667-7.049-5.077s-4.685-12.488-4.685-12.488A37.155,37.155,0,0,0,81.9,36.012l.335.244,2.46,2.692Z" transform="translate(-56.453 -18.383)"/><path class="k" d="M110.109,51.666l.06,1.355-.006-.009c-.057-.083-.5-.721-1.093-1.473-.294-.374-.624-.777-.96-1.154a7.49,7.49,0,0,0-1.484-1.356c-1.351-.813-1.78.932-1.838,1.033s-.167-.539-.287-3.668a5.2,5.2,0,0,0-1.211-3.366,3.115,3.115,0,0,0-.848-.7,6.328,6.328,0,0,1,3.595,2.4,2.817,2.817,0,0,0-.3-2.5c-.813-1.465-1.673-1.275-6.78-2.6s-8.734-6.966-8.734-6.966a10.822,10.822,0,0,0,.868,3.748,10.657,10.657,0,0,0,4.1,4.9l-.006,0c-.033-.009-.147-.043-.327-.106l-.117-.041a15.788,15.788,0,0,1-8.785-8.495,13.976,13.976,0,0,0,.524,4.779l0,.005,4.174,3.784a34.008,34.008,0,0,1-3.721-2.845,22.563,22.563,0,0,0,3.6,3.753c1.188,1.1,2.281,2.095,2.578,2.469a1.847,1.847,0,0,1,.335-.8,3.714,3.714,0,0,1,.9-.909,4.8,4.8,0,0,0-.261.7,2.237,2.237,0,0,0,.006,1.577,6.021,6.021,0,0,1,1.7,0,2.216,2.216,0,0,0-.413-1.4s1.076-.245,2.606,1.882,2.246,2.635,2.489,2.3a2.2,2.2,0,0,0,.333-1.35,3.767,3.767,0,0,0-.519-1.694,3.679,3.679,0,0,0-3.671-2.2l.008,0a4.7,4.7,0,0,1,2.882.021c.071.026.141.056.212.09a5.51,5.51,0,0,1,2.535,4.524,5.232,5.232,0,0,0-1.314-2.55,4.958,4.958,0,0,1,.634,3.592,3.583,3.583,0,0,0,.235,1.764,5.223,5.223,0,0,0,.361.75,7.693,7.693,0,0,0,1.615,1.908,12.731,12.731,0,0,1-1.429-1.118,18.3,18.3,0,0,1-1.453-1.438c-1.551-1.712-2.178-.261-4.807-.734a7.6,7.6,0,0,0,3.2.967,4.513,4.513,0,0,1-4.668-1.181c-.726-.667-1.411-1.37-2.013-2.022-.193-.21-.377-.414-.55-.61l0,0c-1.014-1.146-1.681-2.02-1.716-2.065l.68,1.431-2.3-2.655A10.768,10.768,0,0,1,89.2,46.75C89.082,48.239,85.859,49,85.859,49L88.393,50.2l-3.162-.46,1,.707-1.132-.237a3.553,3.553,0,0,1-1.262,3.849l2.934-.034a20.928,20.928,0,0,1,5.164-4.265s-.138.158-.348.418a13.418,13.418,0,0,0-2.046,3.194s2.343,5.443,3.43,6.071S96.6,61.088,97.791,62.9a7.046,7.046,0,0,1,1.091,3.832c.088-.04.176-.083.263-.128.11-.055.219-.114.329-.176a10.866,10.866,0,0,0,3.946-3.89v0a3.577,3.577,0,0,0-.733-1.09c-.849-1.034-2.129-2.4-2.129-2.4a5.3,5.3,0,0,1-3,.5h0a1.553,1.553,0,0,0,.377-.445,2.558,2.558,0,0,0,.3-1.033,4.882,4.882,0,0,0-.069-1.33l-.364-.339L95.61,57.562l-.008,0,.3-2.236.082-.606S93.68,52.6,93.065,52.84a1.858,1.858,0,0,0-.9.935h0a3.155,3.155,0,0,1,.789-1.923c.788-.88,1.431-.706,1.431-.706a1.231,1.231,0,0,0-.574.451,1.716,1.716,0,0,1,.982-.165,1.1,1.1,0,0,0-.7.631l1.4,1.1-.474-.776.766.789-.356-1.4,1.85,2.881-.362-1.5c.615,1.866,4.3,4.588,4.3,4.588a23.992,23.992,0,0,1,.5-2.623s0,.038,0,.108a24.363,24.363,0,0,0,.152,3.131,1.922,1.922,0,0,0,.143.527,39.058,39.058,0,0,0,2.613,3.151,5.359,5.359,0,0,0,3.17-.331,7.339,7.339,0,0,0,1.836-.98,3.378,3.378,0,0,0,1.455-2.113,7.782,7.782,0,0,0-.388-3.79c-.081-.216-.143-.344-.156-.372l1.237,1.558C112.8,52.192,110.109,51.666,110.109,51.666Zm-1.619,6.739c0,.067-.006.133-.011.2a3.9,3.9,0,0,0-.286-1.274c-.023-.071-.047-.144-.071-.22a3.871,3.871,0,0,0-.468-1.028c-.578-.8-.868.953-1.5.833a.52.52,0,0,1-.357-.352,1.479,1.479,0,0,1-.075-.251,4.456,4.456,0,0,1,.09-2.152c.016-.052.032-.1.053-.157a.808.808,0,0,1,.408-.5c.353-.146.735.121.986.407a4.936,4.936,0,0,1,1.073,2.215A8.694,8.694,0,0,1,108.49,58.406Zm.6-2.993c-.01-.04-.02-.08-.032-.12a4.659,4.659,0,0,0-.244-.666c-.68-1.508-2.174-3.043-3.12-2.71-1.068.377-.983,1.924-.974,2.05v.008s-.722-2.716,1.192-2.752a2.3,2.3,0,0,1,1.463.467c1.462,1.093,1.716,3.729,1.716,3.729Z" transform="translate(-59.929 -20.295)"/><path class="o" d="M72.59,65.814A20.2,20.2,0,0,0,68.937,78.46a33.1,33.1,0,0,0,3.338,11.558,9.713,9.713,0,0,1-1.119-1.635,18.127,18.127,0,0,1-1.328-2.477,17.85,17.85,0,0,1-1.01-2.993,17.091,17.091,0,0,0,.7,5.928,16.83,16.83,0,0,1-1.949-6.012,19.547,19.547,0,0,0,1.5,9.111l-2.226.189a14.59,14.59,0,0,1-2.233-7,17.939,17.939,0,0,0,3,4.125,16.247,16.247,0,0,1-1.9-10.187A12.006,12.006,0,0,0,66.737,82.2S66.311,71.848,72.59,65.814Z" transform="translate(-53.892 -30.707)"/><path class="e" d="M83.161,64.809l-.286.019A.608.608,0,0,1,83.161,64.809Z" transform="translate(-59.628 -30.389)"/><path class="o" d="M75.638,84.881a39.635,39.635,0,0,0,3.559,7.04L77.765,92s-6.652-8.21-4.1-16.734a15.555,15.555,0,0,0,1.6,7.266s-1.81-7.445,4.287-14.694c-6.275,8.159-2.663,18.215-2.61,18.361Z" transform="translate(-56.551 -31.342)"/><path class="l" d="M83.458,92.071l-1,.053-.2.01a22.663,22.663,0,0,1-1.349-23.373C79.753,71.6,75.682,83.3,83.223,91.811,83.3,91.9,83.38,91.985,83.458,92.071Z" transform="translate(-58.184 -31.633)"/><path class="p" d="M83.389,37.907A13.2,13.2,0,0,1,84.5,44.139c-1.511-2.192-2.506-.667-7.049-5.077s-4.685-12.488-4.685-12.488.792,7.339,6.382,11.659A13.272,13.272,0,0,1,76.666,34.6c.064.082,2.108,2.7,3.961,3.242,1.309.382,1.36-.969,1.269-1.827l.335.244,2.46,2.692Z" transform="translate(-56.453 -18.383)"/><path class="p" d="M99.924,32.571a14.21,14.21,0,0,1-2.55-2,14.187,14.187,0,0,1,2.935-12.236A16.791,16.791,0,0,0,98.2,29.03s.377-1.733.4-1.866A19.261,19.261,0,0,0,99.924,32.571Z" transform="translate(-64.069 -15.797)"/><path class="o" d="M95.69,41.164c-6.483-2.22-8.313-6.359-8.313-6.359a18.669,18.669,0,0,0,.054,2.649l0-.005a13.976,13.976,0,0,1-.524-4.779A15.788,15.788,0,0,0,95.69,41.164Z" transform="translate(-60.885 -20.297)"/><path class="i" d="M100.37,45.267l.006,0-.006,0Z" transform="translate(-65.122 -24.254)"/><path class="o" d="M108.656,42.231a2.817,2.817,0,0,1,.3,2.5,6.328,6.328,0,0,0-3.595-2.4h0a3.047,3.047,0,0,1,1.753.073,2.954,2.954,0,0,0-1.283-.816,6.689,6.689,0,0,1,1.775.488,7.7,7.7,0,0,0-3.965-1.244c-2.6-.176-3.225-.779-3.225-.779l1.231.012c-3.81-1.289-7.716-5.354-7.716-5.354l.079,1.7a10.822,10.822,0,0,1-.868-3.748s3.627,5.638,8.734,6.966S107.844,40.766,108.656,42.231Z" transform="translate(-62.852 -20.295)"/><path class="o" d="M123.8,64.718c-.1-2.9-1.6-3-1.6-3l-.06-1.355S124.829,60.894,123.8,64.718Z" transform="translate(-71.96 -28.997)"/><path class="o" d="M96.415,48.083c.03.021.058.043.086.067a1.847,1.847,0,0,0-.335.8c-.3-.374-1.39-1.368-2.578-2.469a13.043,13.043,0,0,0,1.969,1.165A4.934,4.934,0,0,1,96.415,48.083Z" transform="translate(-62.993 -24.636)"/><path class="o" d="M105.791,52.086a.353.353,0,0,0,.1-.072,1.9,1.9,0,0,1-.3.792c-.243.333-.958-.176-2.489-2.3-1.223-1.7-2.157-1.885-2.481-1.89h0a1.374,1.374,0,0,0-.478-.3,1.949,1.949,0,0,1,.9.1,1.05,1.05,0,0,0-.489-.318,3.888,3.888,0,0,1,2.335,1.1,1.246,1.246,0,0,0-.365-.525,6.028,6.028,0,0,1,1.79,2.064c.132.251.248.513.4.75a1.533,1.533,0,0,0,.613.577A.548.548,0,0,0,105.791,52.086Z" transform="translate(-65.051 -25.142)"/><path class="e" d="M108.724,53.11l0-.019-.015-.206A1.017,1.017,0,0,1,108.724,53.11Z" transform="translate(-67.74 -26.647)"/><path class="o" d="M87.459,53.893l2.2,1.571-3.113-.1,1.1.53-1.063.074,1.517.525-2.271-.206a2.889,2.889,0,0,1-.748,2.163l1.684.49-2.934.034a3.553,3.553,0,0,0,1.262-3.849l1.132.237-1-.707,3.162.46-2.535-1.207s3.223-.757,3.338-2.246a10.768,10.768,0,0,0-.476-3.364l2.3,2.655-.68-1.431c.04.054.951,1.246,2.268,2.678l-.99-.682,1.89,2.757-3.8-4.1a3.4,3.4,0,0,1-.164,2.535l1.049-.267C88.787,54.48,87.459,53.893,87.459,53.893Z" transform="translate(-59.929 -25.206)"/><path class="o" d="M117.971,66.883a1.139,1.139,0,0,0-.337-.259.772.772,0,0,0-.741.01c-.113.071-.2.178-.311.254a.758.758,0,0,1-.614.094.932.932,0,0,1-.509-.368,1.848,1.848,0,0,1-.257-.974,3.776,3.776,0,0,1,0-.521,2.582,2.582,0,0,1,.454-1.261l.056-.08c-.021.052-.037.1-.053.157a4.456,4.456,0,0,0-.09,2.152,1.477,1.477,0,0,0,.075.251.52.52,0,0,0,.357.352c.632.12.923-1.636,1.5-.833A3.871,3.871,0,0,1,117.971,66.883Z" transform="translate(-69.778 -30.067)"/><path class="l" d="M118.651,64.213c-.353-.9-1.827-3.089-3-3.043s-1.369,1.6-1.369,1.6V62.76c-.009-.126-.094-1.672.974-2.05.946-.333,2.44,1.2,3.12,2.71a4.548,4.548,0,0,1,.276.786Z" transform="translate(-69.489 -29.09)"/><path class="q" d="M116.567,59.769l-.016,0S116.525,59.734,116.567,59.769Z" transform="translate(-70.202 -28.803)"/><path class="o" d="M119.992,65.189A6.39,6.39,0,0,0,119.837,64c.012.04.022.08.032.12v.005s-.254-2.636-1.716-3.729C119.282,61.008,120.774,62.371,119.992,65.189Z" transform="translate(-70.708 -29.007)"/><path class="o" d="M106.112,58.115a.173.173,0,0,0,.012.025,12.686,12.686,0,0,0-1.96-1.49,3.569,3.569,0,0,1,.935,1.222,1.215,1.215,0,0,0-1.143-.516,6.44,6.44,0,0,0-1.283.306,1.911,1.911,0,0,1-1.3-.013,5.884,5.884,0,0,0,2.093.9,6.724,6.724,0,0,1-4.743-1.879,11.721,11.721,0,0,1-1.068-1.093,22.39,22.39,0,0,1-1.646-2.217c-.039-.058-.126-.157-.2-.261.173.2.357.4.55.61.6.652,1.287,1.355,2.013,2.022a4.513,4.513,0,0,0,4.668,1.181,7.6,7.6,0,0,1-3.2-.967c2.629.473,3.256-.978,4.807.734A18.3,18.3,0,0,0,106.112,58.115Z" transform="translate(-63.693 -26.713)"/><path class="l" d="M108.945,53.845s-1.117-.7-1.285-1.27a5.822,5.822,0,0,0-.005,2.04,3.583,3.583,0,0,1-.235-1.764,4.958,4.958,0,0,0-.634-3.592,5.232,5.232,0,0,1,1.314,2.55,5.51,5.51,0,0,0-2.535-4.524c-.071-.034-.141-.064-.212-.09a4.7,4.7,0,0,0-2.882-.021,4.446,4.446,0,0,1,4.784.98C109.2,50.3,108.029,52.308,108.945,53.845Z" transform="translate(-65.783 -24.754)"/><path class="l" d="M101.848,47.666s4.131.259,4.207,3.445C106.069,51.692,105.359,48.078,101.848,47.666Z" transform="translate(-65.587 -25.007)"/><path class="o" d="M105.624,62.826a23.991,23.991,0,0,0-.5,2.623s-3.683-2.722-4.3-4.588l.362,1.5-1.85-2.881.356,1.4-.766-.789.474.776-1.4-1.1a1.1,1.1,0,0,1,.7-.631,1.716,1.716,0,0,0-.982.165,1.231,1.231,0,0,1,.574-.451s-.643-.174-1.431.706a3.051,3.051,0,0,0-.494.75,5.975,5.975,0,0,1,.342-3.132,4.225,4.225,0,0,0,.182,1.72,2.929,2.929,0,0,1,.393-1.554,7.562,7.562,0,0,0-.044.834.136.136,0,0,0,.029.1.141.141,0,0,0,.071.025l1.512.229a1.223,1.223,0,0,0-.42.249,3.262,3.262,0,0,1,1.014.1.922.922,0,0,0-.438.75,1.4,1.4,0,0,1,.516-.5q.418.685.853,1.36a7.154,7.154,0,0,0-.1-.862,23,23,0,0,0,4.7,4.636,5.067,5.067,0,0,1,.689-1.622c-.009.049-.027.152-.049.3C105.624,62.864,105.624,62.826,105.624,62.826Z" transform="translate(-63.842 -27.992)"/><path class="e" d="M109.964,65.125l.006-.033C109.976,65.093,109.974,65.1,109.964,65.125Z" transform="translate(-68.136 -30.48)"/><path class="o" d="M116.04,73.484a5.359,5.359,0,0,1-3.17.331,39.057,39.057,0,0,1-2.613-3.151,1.923,1.923,0,0,1-.143-.527,3.114,3.114,0,0,0,2.713.61,2.809,2.809,0,0,1-1.486.52,4.953,4.953,0,0,0,5.812.958q-.7.532-1.408,1.067a2.527,2.527,0,0,1-.68.231A5.525,5.525,0,0,0,116.04,73.484Z" transform="translate(-68.183 -32.065)"/><path class="o" d="M102.085,74.448q-.293.167-.592.3a7.046,7.046,0,0,0-1.091-3.832c-1.193-1.81-3.738-2.823-4.826-3.451s-3.43-6.071-3.43-6.071a13.419,13.419,0,0,1,2.046-3.194,7.8,7.8,0,0,0-.8,1.576,5.542,5.542,0,0,0-.57,2.124,6.447,6.447,0,0,1,.988-1.766,4.747,4.747,0,0,0,.186,3.052,10.784,10.784,0,0,0,1.589,2.666c-.063-.431-.126-.864-.189-1.3A6.753,6.753,0,0,0,98.08,67.8a8.146,8.146,0,0,1,2.4,1.663,1.919,1.919,0,0,0-.174-.9,6.762,6.762,0,0,1,1.621,3.869c.1-.333.207-.666.31-1A6.405,6.405,0,0,1,102.085,74.448Z" transform="translate(-62.54 -28.317)"/><path class="o" d="M117.979,56.286a10.6,10.6,0,0,0-2.254-1.447,1.04,1.04,0,0,0-.764-.133.816.816,0,0,1,.9-.154,1.067,1.067,0,0,0-1.33-.249,1.464,1.464,0,0,0-.711,1.217,1.284,1.284,0,0,1-.4-.9,3.6,3.6,0,0,0,.121,1.131,4.3,4.3,0,0,1-.641-1.92c-.005-.072-.01-.146-.01-.219a6.671,6.671,0,0,0-.11,2.2q-.157-.51-.276-1.032a5.732,5.732,0,0,1-.16-1.115,8.444,8.444,0,0,1,.146-1.484c.064-.429.115-.859.143-1.292a7.831,7.831,0,0,0-.143-2.253,5.361,5.361,0,0,0-.154-.543c-.016-.05-.1-.2-.135-.32a5.2,5.2,0,0,1,1.211,3.366c.12,3.129.228,3.769.287,3.668s.486-1.846,1.838-1.033a7.491,7.491,0,0,1,1.484,1.356C117.355,55.509,117.685,55.912,117.979,56.286Z" transform="translate(-68.838 -25.041)"/><path class="o" d="M122.813,68.771a3.378,3.378,0,0,1-1.455,2.113,5.036,5.036,0,0,0,.7-1.5,4.729,4.729,0,0,1-.852.722,6.465,6.465,0,0,0,1.24-2.168,4.3,4.3,0,0,1-.509.458,2.2,2.2,0,0,0,.392-.916,6.832,6.832,0,0,0,.145-2.215,2.768,2.768,0,0,0-.047-.286A7.783,7.783,0,0,1,122.813,68.771Z" transform="translate(-71.666 -30.446)"/><path class="r" d="M66.469,56.069c.115.067,3.13,1.748,6.776-.932,3.717-2.733,5.341-2.773,5.341-2.773a4.528,4.528,0,0,0-4.108.6,5.6,5.6,0,0,1,2.366-1.572,2.308,2.308,0,0,0-2.659-.41,5.3,5.3,0,0,1,1.342-.736c2.633-.886,5.232,2.307,5.232,2.307-5.21,1.5-4.483,3.247-7.746,4.468C69.8,58.222,66.572,56.137,66.469,56.069Z" transform="translate(-54.475 -25.769)"/><path class="s" d="M69.837,62.056a.276.276,0,0,1-.015-.189l.171.032S69.94,61.958,69.837,62.056Z" transform="translate(-55.525 -29.468)"/><path class="r" d="M73.338,60.359a22.024,22.024,0,0,0-3.806,3.576A24.418,24.418,0,0,0,67.481,66.7s-2.981,1.08-5.134-.226a5.671,5.671,0,0,0,4.427-.873c1.762-1.46,3.753-3.439,3.815-3.5l-1.678.94c.019-.038.551-1.112-.4-1.173.071-.106.141-.215.211-.325C68.725,61.546,70.2,62.29,73.338,60.359Z" transform="translate(-53.181 -28.994)"/><path class="r" d="M65.169,71.517s-.246.39-.584,1.054a19.944,19.944,0,0,0-1.6,4.217,6.3,6.3,0,0,1-3.192,2.259,7.985,7.985,0,0,0,2.452-3.721,6.045,6.045,0,0,1-.158,1.206c.045-.088,1.488-2.921,2-4.294l-.712.7s.023-1.156-.92-.633a8.029,8.029,0,0,1,.536-.664c.045-.051.091-.1.138-.15A5.849,5.849,0,0,0,65.169,71.517Z" transform="translate(-52.379 -32.489)"/><path class="r" d="M57.872,82.432s.34,5.946-1.147,9.01c0,0-1.219-1.129-1.864-4.481l.724,1.015a13.984,13.984,0,0,1-.656-2.161c1.692,1.768,2.734-2.93,1.965-2.441a.966.966,0,0,1-1.318-.1,9.512,9.512,0,0,0,1.387-3.445,6.717,6.717,0,0,0-2.052,2.148c.3-1.632.807-2.668,3.2-3.733a18.889,18.889,0,0,1-1.655,4.483A1.786,1.786,0,0,0,57.872,82.432Z" transform="translate(-50.83 -34.61)"/><path class="r" d="M63.645,66.822a9.594,9.594,0,0,1-2.289,1.267c.259-.591.461-1.114.6-1.484A10.367,10.367,0,0,1,63.645,66.822Z" transform="translate(-52.87 -30.956)"/><path class="r" d="M59.291,70.671c.132.034.214.047.214.047a7.038,7.038,0,0,0-1.058,1.761,15.858,15.858,0,0,0-.584,1.507,18.8,18.8,0,0,0-5.825,3.12,13.768,13.768,0,0,1,3.338-3.4,10.235,10.235,0,0,0,2.633-3.618A3.637,3.637,0,0,0,59.291,70.671Z" transform="translate(-49.943 -32.049)"/><path class="r" d="M65.34,61.412s-.053.058-.156.156a7.716,7.716,0,0,1-2.282,1.46c-1.818.759-4.559,1.087-7.905-1.044a7.728,7.728,0,0,0,6.483-.734c.469-.313.9-.628,1.3-.936a5.787,5.787,0,0,0,2.386,1.065Z" transform="translate(-50.872 -28.98)"/><path class="r" d="M75.646,46.853s-1.887,1.549-2.639,2.213c-.084.073-.153.136-.2.184-.517.489-1.852.355-3.521.083s-2.141-3.346-2.141-3.346,3.3,4.654,7.477-.283l.364.407Z" transform="translate(-54.687 -24.391)"/><path class="o" d="M99.717,64.561a25.569,25.569,0,0,0-2.12-1.909c-.663-.464-1.654.453-1.625.355h0a1.858,1.858,0,0,1,.9-.935c.615-.237,2.921,1.884,2.921,1.884Z" transform="translate(-63.741 -29.526)"/><path class="e" d="M103.843,71.645l.377-.445A1.553,1.553,0,0,1,103.843,71.645Z" transform="translate(-66.213 -32.399)"/><path class="o" d="M101,68.428l2.192-1.167.364.339a4.882,4.882,0,0,1,.069,1.33,2.213,2.213,0,0,0-.462-.7C102.613,67.668,101.128,68.368,101,68.428Z" transform="translate(-65.321 -31.162)"/><path class="o" d="M109.706,74.612v0a14.981,14.981,0,0,0-3.15-2.745,4.944,4.944,0,0,1-2.708-.248,5.3,5.3,0,0,0,3-.5S109.725,74.2,109.706,74.612Z" transform="translate(-66.215 -32.374)"/><path class="o" d="M110.431,75.711v0a10.866,10.866,0,0,1-3.946,3.89c-.11.062-.219.121-.329.176a22.657,22.657,0,0,0,1.7-1.5,5.188,5.188,0,0,0,1.113-1.408,4.835,4.835,0,0,1-1.173.875,4.69,4.69,0,0,0,1.746-2.25,2.721,2.721,0,0,0,.153-.875A3.577,3.577,0,0,1,110.431,75.711Z" transform="translate(-66.94 -33.473)"/><path class="l" d="M94.846,36.99a11.324,11.324,0,0,0,5.075,4.938c3.3,1.349,4.523.487,5.853,2.87a4.116,4.116,0,0,0-3.175-1.7,5.662,5.662,0,0,1-2.981-.643,1.84,1.84,0,0,0,.942.639,8.588,8.588,0,0,1-3.793-2.552,7.174,7.174,0,0,0,2.227,1.326A10.072,10.072,0,0,1,94.846,36.99Z" transform="translate(-63.388 -21.655)"/><path class="l" d="M89.691,39.682a14.072,14.072,0,0,0,7.8,4.7A11.046,11.046,0,0,1,89.691,39.682Z" transform="translate(-61.769 -22.5)"/><path class="s" d="M103,66.58l-1.3.709.561-.775-.065.231.538-.547A1.215,1.215,0,0,1,103,66.58Z" transform="translate(-65.541 -30.827)"/><path class="s" d="M106.808,70.112a3.036,3.036,0,0,1-1.8.623.529.529,0,0,0,.095-.045,2.723,2.723,0,0,0,.762-.857.927.927,0,0,1-.179.414,1.419,1.419,0,0,0,.527-.581l.042-.069Z" transform="translate(-66.579 -31.896)"/><path class="t" d="M83.489,75.242,86.6,81.578l-.319-2.5,2.262.086a5.868,5.868,0,0,0-.5,3.918l-2.492,1.507.328-3.088Z" transform="translate(-59.821 -33.668)"/><path class="t" d="M87.43,87.5a10.958,10.958,0,0,0,1.478,4.509l-1.33,3.223-.5-2.27-5.726-7.805,5.621,6.866-1.2-3Z" transform="translate(-59.148 -36.781)"/><path class="t" d="M92.581,73.764l-1.458,1.363-4.179.265.975-1.928-.61-4.018a.058.058,0,0,0,.017.014c.141.213.984,2.537.984,2.537l.274,2.189.224-1.666Z" transform="translate(-60.906 -31.848)"/></g><path class="b" d="M98.911,108.216a95.544,95.544,0,0,0-59.05,0V93.06a95.544,95.544,0,0,1,59.05,0Z" transform="translate(-22.979 -34.989)"/><g transform="translate(19.494 56.083)"><g transform="translate(0 2.814)"><path class="i" d="M50.842,99.258v3.423a3.6,3.6,0,0,1-.283,1.394,4.641,4.641,0,0,1-.783,1.261,5.217,5.217,0,0,1-1.161,1,4.8,4.8,0,0,1-1.416.61q-1.7.425-3.378.912V97.587Q45.5,97.1,47.2,96.674a3.455,3.455,0,0,1,1.416-.079,2.733,2.733,0,0,1,1.161.468,2.5,2.5,0,0,1,.783.92A2.793,2.793,0,0,1,50.842,99.258Zm-3.636-.525q-.611.153-1.222.316V105.2q.61-.162,1.222-.315a1.95,1.95,0,0,0,1.032-.647,1.623,1.623,0,0,0,.419-1.069V99.744a.994.994,0,0,0-.419-.87A1.213,1.213,0,0,0,47.206,98.733Z" transform="translate(-43.716 -96.452)"/><path class="u" d="M43.669,107.95V97.462l.075-.022c1.116-.323,2.254-.63,3.382-.913a3.573,3.573,0,0,1,1.458-.081,2.848,2.848,0,0,1,1.2.487,2.608,2.608,0,0,1,.816.957,2.9,2.9,0,0,1,.294,1.32v3.424a3.729,3.729,0,0,1-.291,1.434,4.786,4.786,0,0,1-.8,1.29,5.347,5.347,0,0,1-1.184,1.021,4.927,4.927,0,0,1-1.446.622c-1.125.282-2.26.589-3.375.912Zm.207-10.332v10.057c1.074-.309,2.167-.6,3.249-.875a4.706,4.706,0,0,0,1.386-.6,5.171,5.171,0,0,0,1.139-.981,4.6,4.6,0,0,0,.766-1.234,3.518,3.518,0,0,0,.275-1.354V99.21a2.7,2.7,0,0,0-.272-1.227,2.411,2.411,0,0,0-.752-.882,2.644,2.644,0,0,0-1.118-.451,3.376,3.376,0,0,0-1.373.077C46.075,97,44.965,97.3,43.876,97.618Zm1.956,7.669V98.921l.078-.02c.4-.107.816-.213,1.224-.316h0a1.312,1.312,0,0,1,1.116.156,1.1,1.1,0,0,1,.464.955v3.424a1.73,1.73,0,0,1-.444,1.136,2.052,2.052,0,0,1-1.086.68c-.4.1-.814.207-1.221.315Zm.207-6.206v5.937c.365-.1.733-.19,1.094-.281a1.853,1.853,0,0,0,.977-.613,1.508,1.508,0,0,0,.4-1V99.7a.889.889,0,0,0-.375-.785,1.106,1.106,0,0,0-.947-.126h0C46.8,98.882,46.418,98.981,46.04,99.081Z" transform="translate(-43.669 -96.404)"/></g><g transform="translate(7.849 1.159)"><path class="i" d="M62.572,101.912v2.076q-1.106.138-2.209.3v-2.076a.819.819,0,0,0-.32-.687,1,1,0,0,0-.8-.172q-.894.142-1.788.3v3.106q-1.1.2-2.195.417V94.905q1.1-.221,2.195-.417.888-.158,1.778-.3a3.22,3.22,0,0,1,1.3.045,2.772,2.772,0,0,1,1.063.51,2.562,2.562,0,0,1,.713.892,2.635,2.635,0,0,1,.262,1.172v.985a3.051,3.051,0,0,1-.221,1.134,3.659,3.659,0,0,1-.631,1.036,2.545,2.545,0,0,1,.631.873A2.649,2.649,0,0,1,62.572,101.912Zm-2.209-3.821v-.984a.82.82,0,0,0-.32-.687,1,1,0,0,0-.8-.172q-.894.143-1.788.3v3.045q.893-.158,1.788-.3a1.35,1.35,0,0,0,.8-.419A1.116,1.116,0,0,0,60.363,98.091Z" transform="translate(-55.159 -94.04)"/><path class="u" d="M55.112,105.257V94.773l.083-.016c.728-.147,1.467-.287,2.2-.418.589-.1,1.187-.206,1.779-.3a3.341,3.341,0,0,1,1.34.046,2.891,2.891,0,0,1,1.1.53,2.668,2.668,0,0,1,.741.927,2.751,2.751,0,0,1,.272,1.217v.985a3.173,3.173,0,0,1-.228,1.172,3.757,3.757,0,0,1-.584.989,2.67,2.67,0,0,1,.583.84,2.769,2.769,0,0,1,.23,1.12v2.167l-.091.012c-.734.091-1.476.192-2.207.3l-.119.017v-2.2a.715.715,0,0,0-.281-.6.888.888,0,0,0-.717-.152c-.565.09-1.137.186-1.7.286V104.8l-.085.015c-.729.13-1.467.27-2.193.417Zm.207-10.314V105c.659-.132,1.327-.259,1.988-.377V101.52l.086-.015c.593-.106,1.195-.207,1.789-.3a1.1,1.1,0,0,1,.877.192.922.922,0,0,1,.361.769v1.956c.664-.1,1.337-.189,2-.272v-1.984a2.55,2.55,0,0,0-.213-1.036,2.446,2.446,0,0,0-.6-.838l-.075-.068.066-.076a3.583,3.583,0,0,0,.613-1.008,2.962,2.962,0,0,0,.214-1.1v-.985a2.53,2.53,0,0,0-.252-1.126,2.459,2.459,0,0,0-.683-.856,2.688,2.688,0,0,0-1.024-.491,3.146,3.146,0,0,0-1.258-.043c-.591.094-1.188.195-1.775.3C56.728,94.668,56.019,94.8,55.319,94.942Zm1.988,4.728V96.414l.086-.015c.59-.1,1.192-.206,1.789-.3a1.1,1.1,0,0,1,.877.192.923.923,0,0,1,.361.77v.984a1.221,1.221,0,0,1-.348.853,1.456,1.456,0,0,1-.856.451c-.593.095-1.194.2-1.785.3Zm.207-3.083v2.835c.554-.1,1.114-.192,1.668-.28a1.235,1.235,0,0,0,.737-.388,1.008,1.008,0,0,0,.293-.712v-.984a.714.714,0,0,0-.281-.6.886.886,0,0,0-.717-.152C58.647,96.392,58.076,96.488,57.514,96.588Z" transform="translate(-55.112 -93.992)"/></g><g transform="translate(16.028 0.259)"><path class="i" d="M70.922,92.842a3.282,3.282,0,0,1,1.313.151,3.1,3.1,0,0,1,1.059.6,2.9,2.9,0,0,1,.715.942,2.713,2.713,0,0,1,.263,1.185v7.2q-1.111.046-2.222.119V100.14q-1.324.086-2.647.208v2.894q-1.109.1-2.216.23v-7.2a3,3,0,0,1,.261-1.226,3.665,3.665,0,0,1,.7-1.054,3.706,3.706,0,0,1,1.048-.763,3.559,3.559,0,0,1,1.3-.356l.295-.023Zm-.41,2.092a1.23,1.23,0,0,0-.776.361,1.015,1.015,0,0,0-.335.75v2.379q1.322-.121,2.647-.208V95.837a.88.88,0,0,0-.319-.7,1.045,1.045,0,0,0-.792-.238Z" transform="translate(-67.082 -92.727)"/><path class="u" d="M67.035,103.54V96.227a3.109,3.109,0,0,1,.27-1.269,3.759,3.759,0,0,1,1.8-1.868,3.656,3.656,0,0,1,1.333-.366l.3-.023.131-.01a3.419,3.419,0,0,1,1.354.156,3.215,3.215,0,0,1,1.094.619,3.012,3.012,0,0,1,.74.976,2.826,2.826,0,0,1,.273,1.23v7.3l-.1,0c-.737.031-1.484.071-2.22.119l-.11.007V100.2c-.81.053-1.63.118-2.44.192v2.894l-.094.008c-.736.068-1.481.145-2.214.23ZM71.16,92.886c-.092,0-.185,0-.278.011h0l-.131.01-.295.023a3.461,3.461,0,0,0-1.258.346,3.56,3.56,0,0,0-1.7,1.766,2.909,2.909,0,0,0-.252,1.185v7.08c.665-.075,1.34-.145,2.008-.208v-2.894l.094-.008c.879-.081,1.771-.151,2.65-.208l.11-.008v2.894c.669-.043,1.346-.079,2.015-.108v-7.1a2.615,2.615,0,0,0-.253-1.141,2.8,2.8,0,0,0-.689-.91,3.01,3.01,0,0,0-1.024-.578A3.114,3.114,0,0,0,71.16,92.886Zm-1.91,5.6V96a1.122,1.122,0,0,1,.366-.824,1.334,1.334,0,0,1,.84-.39h0l.425-.034a1.149,1.149,0,0,1,.868.263.984.984,0,0,1,.355.777v2.476l-.1.006c-.879.057-1.768.127-2.644.207Zm1.222-3.5a1.119,1.119,0,0,0-.712.332.91.91,0,0,0-.3.676v2.266c.809-.074,1.628-.138,2.44-.191V95.79a.775.775,0,0,0-.283-.619.938.938,0,0,0-.717-.214l-.425.034Z" transform="translate(-67.035 -92.679)"/></g><g transform="translate(24.002)"><path class="i" d="M85.88,96.846V99.7a2.729,2.729,0,0,1-.263,1.19,3,3,0,0,1-.715.956,3.376,3.376,0,0,1-1.06.636,3.557,3.557,0,0,1-1.3.227h-.394a3.594,3.594,0,0,1-1.3-.235,3.407,3.407,0,0,1-1.06-.641,3.018,3.018,0,0,1-.715-.958,2.725,2.725,0,0,1-.263-1.189V95.582a2.839,2.839,0,0,1,.262-1.2,3.209,3.209,0,0,1,.711-1,3.408,3.408,0,0,1,2.355-.927q1.334,0,2.67.039v2.061q-1.334-.038-2.67-.039a1.11,1.11,0,0,0-.783.3.962.962,0,0,0-.322.736v4.1a.925.925,0,0,0,.324.715,1.133,1.133,0,0,0,.787.293h.4a1.124,1.124,0,0,0,.787-.288.924.924,0,0,0,.323-.715v-.8q-.956-.015-1.912-.012V96.772Q83.813,96.765,85.88,96.846Z" transform="translate(-78.707 -92.349)"/><path class="u" d="M82.516,102.767H82.1a3.711,3.711,0,0,1-1.336-.242,3.519,3.519,0,0,1-1.093-.661,3.129,3.129,0,0,1-.739-.99,2.843,2.843,0,0,1-.273-1.233V95.534a2.957,2.957,0,0,1,.272-1.248,3.327,3.327,0,0,1,.734-1.028,3.516,3.516,0,0,1,2.423-.956h0c.888,0,1.788.014,2.672.039l.1,0v2.268l-.106,0c-.883-.025-1.781-.038-2.667-.039h0a1,1,0,0,0-.711.27.856.856,0,0,0-.288.66v4.1a.819.819,0,0,0,.289.638,1.024,1.024,0,0,0,.718.266h.406a1.014,1.014,0,0,0,.711-.261A.818.818,0,0,0,83.5,99.6v-.7c-.6-.009-1.206-.013-1.807-.011h-.1V96.621h.1c1.374,0,2.767.021,4.14.075l.1,0v2.955a2.852,2.852,0,0,1-.273,1.235,3.117,3.117,0,0,1-.739.989,3.5,3.5,0,0,1-1.093.655A3.674,3.674,0,0,1,82.516,102.767Zm-.427-10.258a3.307,3.307,0,0,0-2.281.9,3.129,3.129,0,0,0-.689.964,2.753,2.753,0,0,0-.252,1.161V99.64a2.634,2.634,0,0,0,.253,1.144,2.924,2.924,0,0,0,.691.926,3.318,3.318,0,0,0,1.028.621,3.506,3.506,0,0,0,1.262.228H82.5a3.475,3.475,0,0,0,1.262-.221,3.29,3.29,0,0,0,1.028-.615,2.924,2.924,0,0,0,.69-.924,2.64,2.64,0,0,0,.253-1.146V96.9c-1.3-.049-2.624-.074-3.929-.071v1.853c.6,0,1.211,0,1.81.013l.1,0v.9a1.029,1.029,0,0,1-.357.792,1.244,1.244,0,0,1-.857.314h-.4a1.237,1.237,0,0,1-.857-.32,1.03,1.03,0,0,1-.358-.792V95.5a1.066,1.066,0,0,1,.355-.812,1.216,1.216,0,0,1,.852-.324h0c.853,0,1.716.013,2.566.036V92.546c-.851-.023-1.713-.036-2.566-.036Z" transform="translate(-78.66 -92.302)"/></g><g transform="translate(31.877 0.299)"><path class="i" d="M97.409,96.374v4.106a2.6,2.6,0,0,1-.262,1.165,2.66,2.66,0,0,1-.713.9,3.039,3.039,0,0,1-1.058.548,3.451,3.451,0,0,1-1.3.121l-.313-.026-.131-.011a3.847,3.847,0,0,1-2.361-1.066,3.378,3.378,0,0,1-.716-1.016,2.864,2.864,0,0,1-.263-1.21V95.776a2.747,2.747,0,0,1,.263-1.192,2.85,2.85,0,0,1,.716-.946,3.09,3.09,0,0,1,1.062-.593,3.271,3.271,0,0,1,1.3-.145l.444.038a3.582,3.582,0,0,1,1.3.363,3.872,3.872,0,0,1,1.058.77,3.612,3.612,0,0,1,.713,1.067A3.062,3.062,0,0,1,97.409,96.374Zm-2.215,3.863V96.132a1.054,1.054,0,0,0-.322-.766,1.237,1.237,0,0,0-.8-.368l-.447-.038a1.038,1.038,0,0,0-.785.235.887.887,0,0,0-.323.711v4.106a1.014,1.014,0,0,0,.323.743,1.224,1.224,0,0,0,.785.357l.447.037a1.062,1.062,0,0,0,.8-.223A.847.847,0,0,0,95.194,100.237Z" transform="translate(-90.189 -92.785)"/><path class="u" d="M94.365,103.281q-.17,0-.344-.014l-.312-.027-.132-.011a3.943,3.943,0,0,1-2.424-1.095,3.493,3.493,0,0,1-.738-1.047,2.981,2.981,0,0,1-.273-1.253V95.729a2.858,2.858,0,0,1,.274-1.237,2.955,2.955,0,0,1,.742-.98,3.188,3.188,0,0,1,1.1-.613,3.383,3.383,0,0,1,1.34-.15l.444.037a3.7,3.7,0,0,1,1.335.374,3.977,3.977,0,0,1,1.087.791,3.706,3.706,0,0,1,.734,1.1,3.175,3.175,0,0,1,.271,1.278v4.106a2.707,2.707,0,0,1-.273,1.211,2.777,2.777,0,0,1-.741.93,3.154,3.154,0,0,1-1.094.567A3.465,3.465,0,0,1,94.365,103.281ZM93.291,92.944a3.1,3.1,0,0,0-.972.152,2.984,2.984,0,0,0-1.026.572,2.756,2.756,0,0,0-.69.912,2.644,2.644,0,0,0-.254,1.148v4.105A2.773,2.773,0,0,0,90.6,101a3.277,3.277,0,0,0,.694.985,3.736,3.736,0,0,0,2.3,1.036l.132.011.313.027a3.365,3.365,0,0,0,1.259-.118,2.939,2.939,0,0,0,1.023-.529,2.562,2.562,0,0,0,.686-.861,2.5,2.5,0,0,0,.252-1.119V96.327A2.954,2.954,0,0,0,97,95.133a3.519,3.519,0,0,0-.693-1.036,3.772,3.772,0,0,0-1.03-.75,3.491,3.491,0,0,0-1.26-.353l-.444-.037C93.481,92.949,93.385,92.944,93.291,92.944Zm.858,8.266c-.045,0-.089,0-.135-.005l-.447-.038a1.333,1.333,0,0,1-.851-.386,1.12,1.12,0,0,1-.353-.816V95.859a.993.993,0,0,1,.359-.791,1.145,1.145,0,0,1,.862-.258l.447.037a1.349,1.349,0,0,1,.867.4,1.16,1.16,0,0,1,.352.839v4.105a.951.951,0,0,1-.36.769A1.132,1.132,0,0,1,94.149,101.211Zm-.685-6.2a.905.905,0,0,0-.607.215.783.783,0,0,0-.286.632v4.106a.909.909,0,0,0,.292.669,1.113,1.113,0,0,0,.722.326l.447.038a.96.96,0,0,0,.727-.2.744.744,0,0,0,.285-.609V96.085a.946.946,0,0,0-.292-.693,1.129,1.129,0,0,0-.737-.337l-.447-.038C93.532,95.013,93.5,95.012,93.464,95.012Z" transform="translate(-90.142 -92.738)"/></g><g transform="translate(39.895 0.807)"><path class="i" d="M109.025,105.089q-1.095-.225-2.194-.425-1.318-2.732-2.642-5.428v4.985q-1.1-.169-2.208-.313V93.651q1.105.144,2.208.313,1.323,2.8,2.642,5.64v-5.2q1.1.2,2.194.425Z" transform="translate(-101.877 -93.533)"/><path class="u" d="M109.081,105.162l-.124-.025c-.728-.15-1.465-.292-2.192-.425l-.051-.009-.023-.047c-.8-1.667-1.626-3.356-2.445-5.027v4.659l-.119-.018c-.731-.113-1.473-.218-2.206-.313l-.09-.012V93.479l.117.015c.734.1,1.478.2,2.211.314l.054.008.023.049c.818,1.731,1.639,3.483,2.445,5.216V94.229l.122.023c.731.132,1.47.276,2.2.425l.083.017Zm-2.227-.644c.67.122,1.349.253,2.02.39V94.862c-.658-.134-1.325-.263-1.987-.385v5.542l-.2-.425c-.861-1.853-1.742-3.734-2.618-5.589-.674-.1-1.358-.2-2.034-.289v10.048c.665.087,1.337.182,2,.284V98.737l.2.4C105.111,100.923,105.992,102.732,106.854,104.518Z" transform="translate(-101.83 -93.479)"/></g><g transform="translate(47.814 2.829)"><path class="i" d="M120.079,99.627q-1.637-.472-3.286-.886a.893.893,0,0,0-.769.111.743.743,0,0,0-.316.645,1.213,1.213,0,0,0,.316.805,1.453,1.453,0,0,0,.768.483l.113.029a4.051,4.051,0,0,1,1.275.573,4.82,4.82,0,0,1,1.039.942,4.536,4.536,0,0,1,.7,1.174,3.375,3.375,0,0,1,.257,1.271,2.425,2.425,0,0,1-.256,1.131,2.073,2.073,0,0,1-.7.787,2.45,2.45,0,0,1-1.034.377,3.282,3.282,0,0,1-1.27-.087q-1.578-.4-3.166-.744l-.13-.027v-2.061q1.652.356,3.3.771a.93.93,0,0,0,.772-.1.723.723,0,0,0,.322-.65,1.226,1.226,0,0,0-.322-.8,1.469,1.469,0,0,0-.772-.494l-.113-.028a4.262,4.262,0,0,1-1.274-.554,4.73,4.73,0,0,1-1.042-.9,4.2,4.2,0,0,1-.7-1.141,3.261,3.261,0,0,1-.259-1.261,2.459,2.459,0,0,1,.259-1.141,2.25,2.25,0,0,1,.7-.821,2.481,2.481,0,0,1,1.042-.418,3.089,3.089,0,0,1,1.274.069q1.643.413,3.274.883Z" transform="translate(-113.422 -96.474)"/><path class="u" d="M117.744,107.155a3.649,3.649,0,0,1-.9-.118c-1.045-.263-2.109-.513-3.162-.742l-.211-.046v-2.272l.126.027c1.1.237,2.209.5,3.3.772a.829.829,0,0,0,.69-.084.621.621,0,0,0,.275-.564,1.134,1.134,0,0,0-.3-.737,1.37,1.37,0,0,0-.718-.46l-.112-.029a4.389,4.389,0,0,1-1.305-.567,4.889,4.889,0,0,1-1.065-.919,4.35,4.35,0,0,1-.721-1.169,3.372,3.372,0,0,1-.268-1.3,2.57,2.57,0,0,1,.271-1.188,2.365,2.365,0,0,1,.736-.858,2.6,2.6,0,0,1,1.085-.436,3.208,3.208,0,0,1,1.316.071c1.091.274,2.194.571,3.277.883l.075.021v2.277L120,99.679c-1.084-.313-2.189-.61-3.283-.885a.786.786,0,0,0-.683.1.64.64,0,0,0-.272.561,1.106,1.106,0,0,0,.291.738,1.362,1.362,0,0,0,.715.45l.113.028a4.17,4.17,0,0,1,1.307.588,4.933,4.933,0,0,1,1.061.962,4.666,4.666,0,0,1,.715,1.2,3.482,3.482,0,0,1,.264,1.31,2.54,2.54,0,0,1-.268,1.178,2.188,2.188,0,0,1-.731.827,2.578,2.578,0,0,1-1.078.394A3.007,3.007,0,0,1,117.744,107.155Zm-4.065-1.073.048.01c1.056.229,2.122.479,3.168.744a3.216,3.216,0,0,0,1.231.085,2.361,2.361,0,0,0,.992-.361,1.977,1.977,0,0,0,.662-.75,2.339,2.339,0,0,0,.244-1.083,3.279,3.279,0,0,0-.249-1.232,4.469,4.469,0,0,0-.683-1.148,4.717,4.717,0,0,0-1.016-.921,3.959,3.959,0,0,0-1.243-.559l-.112-.028a1.566,1.566,0,0,1-.822-.517,1.32,1.32,0,0,1-.34-.873.843.843,0,0,1,.359-.73.993.993,0,0,1,.853-.128c1.053.264,2.114.549,3.157.848V97.6c-1.056-.3-2.131-.593-3.2-.861a3.011,3.011,0,0,0-1.231-.067,2.4,2.4,0,0,0-1,.4,2.156,2.156,0,0,0-.672.784,2.366,2.366,0,0,0-.248,1.093,3.174,3.174,0,0,0,.252,1.221,4.112,4.112,0,0,0,.687,1.113,4.67,4.67,0,0,0,1.02.88,4.179,4.179,0,0,0,1.243.54l.113.029a1.576,1.576,0,0,1,.826.527,1.337,1.337,0,0,1,.346.871.824.824,0,0,1-.368.737,1.034,1.034,0,0,1-.854.111c-1.046-.263-2.111-.514-3.166-.743Z" transform="translate(-113.375 -96.427)"/></g></g><g transform="translate(59.163 49.848)"><path class="b" d="M110.087,88.653a5.333,5.333,0,0,1-1.856,2.341s1.685,1.694,4.236-.323c0,0,1.755-.958,1.808-2.4a3.239,3.239,0,0,0-.79-2.287l-1.58.357.458-.418-2.1-.3a2.071,2.071,0,0,0-.473-1.678,3.883,3.883,0,0,0-1.945-.731c-.137-.047-1.858,1.338-2.6,1.767a3.492,3.492,0,0,0-1,.776s-.364-.894-1.086-.48-1.365.728-1.559,1.345a3.416,3.416,0,0,0,.49,2.7,4.254,4.254,0,0,0,3.474,2.2,3.538,3.538,0,0,1-.384-1.882c.2-.687,1.178-.18,1.178-.18l.051,1.448a2.56,2.56,0,0,0,2.069-1.125A2.053,2.053,0,0,1,110.087,88.653Z" transform="translate(-101.5 -83.212)"/><path class="i" d="M103.143,90.98a9.281,9.281,0,0,0,2.21,1.879,4.906,4.906,0,0,1-.513-2.638,3.136,3.136,0,0,0-.74-.509.738.738,0,0,0-.62-.053C102.977,89.909,103.143,90.98,103.143,90.98Z" transform="translate(-102.008 -85.222)"/><path class="l" d="M102.789,89.326c.007-.026.219-.875.461-.993s1.434.523,1.532.613.017-.873-.473-1.409l0-.005c-.494-.536-.661-.5-.661-.5a3.149,3.149,0,0,0-.788.837,2.317,2.317,0,0,0-.108,1.111C102.764,89.173,102.787,89.315,102.789,89.326Z" transform="translate(-101.886 -84.411)"/><path class="l" d="M106.591,87.748s.34-.546.746-.629l.776-.156.15-.545.021-.075.148.459a4.67,4.67,0,0,1,1.464-1.059,4.748,4.748,0,0,1,.917,1.217h0c.019-.048.554-1.369.165-1.932s-1.663-.589-1.663-.589a5.562,5.562,0,0,1-1.128,1.382c-.226.182-.4.341-.532.468a3.436,3.436,0,0,0-.338.371l.111-.652.053-.307a5.321,5.321,0,0,0-1.09.663.628.628,0,0,0-.145.182.334.334,0,0,0-.025.093A2.5,2.5,0,0,0,106.591,87.748Z" transform="translate(-102.982 -83.597)"/><path class="l" d="M116.188,89.658c.459.263.123,1.713.123,1.713s1.082-.846,1.039-1.437a3.923,3.923,0,0,0-.538-1.384l-2.525-.123.738-.536-1.085-.21-.2,1.015.748.581.488-.346-.272.741,0,.01A2.662,2.662,0,0,1,116.188,89.658Z" transform="translate(-105.343 -84.616)"/><path class="i" d="M112.654,93.443c1.414.344,2.987-1.023,2.987-1.023s.387-1,.079-1.31a.266.266,0,0,0-.045-.037c-.389-.257-1.41.019-1.41.019A5.185,5.185,0,0,1,112.654,93.443Z" transform="translate(-105.003 -85.647)"/><path class="i" d="M109.6,91.43c2.1-1.357,2.135-2.987,1.969-3.388a2.737,2.737,0,0,0-.669-.82c-.5-.078-1.313.932-1.313.932a6.545,6.545,0,0,1,.013,3.275Z" transform="translate(-104.041 -84.47)"/><path class="o" d="M114.971,88.931l-.273.742,1.505-.612-.427.057,1.035-.568-2.525-.123.738-.535-1.085-.21-.2,1.015.748.581Z" transform="translate(-105.343 -84.616)"/><path class="o" d="M106.591,88.655s.34-.546.746-.629l.776-.156.15-.545a1.876,1.876,0,0,1-.621.439,1.758,1.758,0,0,1-1.166-.088c-.037-.013-.151-.078-.254-.131A2.5,2.5,0,0,0,106.591,88.655Z" transform="translate(-102.982 -84.504)"/><path class="o" d="M108.316,86.288a4.674,4.674,0,0,0,.925-.669,2.252,2.252,0,0,1,1.23-.517l-.53-.117s.807-.376,1.262.062.276,1.868.271,1.912h0c.019-.048.554-1.369.165-1.932s-1.663-.589-1.663-.589a5.562,5.562,0,0,1-1.128,1.382C108.622,86,108.448,86.16,108.316,86.288Z" transform="translate(-103.641 -83.597)"/><path class="k" d="M106.473,86.941a4.417,4.417,0,0,1,1.037-.356l.053-.307A5.321,5.321,0,0,0,106.473,86.941Z" transform="translate(-103.062 -84.175)"/><path class="o" d="M102.747,88.977c.136-1.35.763-1.365,1.286-1.433a1.269,1.269,0,0,1,.276-.006l0-.005c-.494-.536-.661-.5-.661-.5a3.149,3.149,0,0,0-.788.837A2.317,2.317,0,0,0,102.747,88.977Z" transform="translate(-101.886 -84.411)"/><path class="s" d="M105.795,92.906a4.906,4.906,0,0,1-.513-2.638,3.136,3.136,0,0,0-.74-.509,3.378,3.378,0,0,0,.158,1.4l-.134-.179A4.846,4.846,0,0,0,105.795,92.906Z" transform="translate(-102.449 -85.268)"/><path class="s" d="M109.61,91.432c2.1-1.357,2.135-2.987,1.969-3.388a2.737,2.737,0,0,0-.669-.82,5.419,5.419,0,0,1-1.3,4.207Z" transform="translate(-104.047 -84.472)"/><path class="s" d="M112.654,93.51c1.414.344,2.987-1.023,2.987-1.023s.387-1,.079-1.31C115.094,92.569,112.654,93.51,112.654,93.51Z" transform="translate(-105.003 -85.714)"/></g><g transform="translate(19.228 49.888)"><path class="b" d="M47.472,88.712a5.328,5.328,0,0,0,1.855,2.341s-1.685,1.694-4.236-.323c0,0-1.755-.959-1.808-2.4a3.237,3.237,0,0,1,.79-2.286l1.58.357-.458-.418,2.1-.3A2.069,2.069,0,0,1,47.772,84a3.883,3.883,0,0,1,1.945-.731c.136-.047,1.858,1.337,2.6,1.766a3.485,3.485,0,0,1,1,.777s.364-.894,1.086-.481,1.365.728,1.559,1.345a3.415,3.415,0,0,1-.49,2.7A4.25,4.25,0,0,1,52,91.581a3.529,3.529,0,0,0,.384-1.882c-.2-.687-1.177-.18-1.177-.18l-.052,1.448a2.561,2.561,0,0,1-2.069-1.125A2.05,2.05,0,0,0,47.472,88.712Z" transform="translate(-43.282 -83.271)"/><path class="i" d="M59.242,91.038a9.282,9.282,0,0,1-2.209,1.88,4.9,4.9,0,0,0,.512-2.638,3.15,3.15,0,0,1,.74-.51.743.743,0,0,1,.62-.054C59.408,89.968,59.242,91.038,59.242,91.038Z" transform="translate(-47.6 -85.281)"/><path class="l" d="M59.664,89.385c-.007-.026-.219-.875-.461-.993s-1.434.522-1.532.613-.017-.873.473-1.409l0-.005c.494-.536.661-.5.661-.5a3.153,3.153,0,0,1,.788.836,2.32,2.32,0,0,1,.108,1.112C59.689,89.231,59.666,89.373,59.664,89.385Z" transform="translate(-47.79 -84.47)"/><path class="l" d="M54.573,87.807s-.34-.547-.746-.629l-.776-.156-.15-.545-.02-.074-.149.459a4.682,4.682,0,0,0-1.464-1.06,4.741,4.741,0,0,0-.917,1.218h0c-.019-.048-.554-1.369-.165-1.933s1.663-.589,1.663-.589a5.575,5.575,0,0,0,1.128,1.382c.226.182.4.34.532.468a3.357,3.357,0,0,1,.338.371l-.111-.653-.053-.306a5.321,5.321,0,0,1,1.09.663.628.628,0,0,1,.145.182.359.359,0,0,1,.026.093A2.511,2.511,0,0,1,54.573,87.807Z" transform="translate(-45.405 -83.656)"/><path class="l" d="M45.565,89.717c-.459.262-.123,1.712-.123,1.712s-1.082-.846-1.039-1.436a3.917,3.917,0,0,1,.538-1.384l2.525-.123-.738-.535,1.085-.211.2,1.015-.748.581-.488-.345.272.741,0,.009A2.664,2.664,0,0,0,45.565,89.717Z" transform="translate(-43.633 -84.674)"/><path class="i" d="M49.3,93.5c-1.414.344-2.987-1.023-2.987-1.023s-.387-1-.079-1.309a.338.338,0,0,1,.045-.038c.389-.256,1.41.02,1.41.02A5.185,5.185,0,0,0,49.3,93.5Z" transform="translate(-44.17 -85.706)"/><path class="i" d="M52.87,91.489c-2.1-1.357-2.135-2.986-1.969-3.387a2.727,2.727,0,0,1,.669-.82c.5-.078,1.313.931,1.313.931a6.557,6.557,0,0,0-.013,3.275Z" transform="translate(-45.655 -84.529)"/><path class="o" d="M47.03,88.99l.273.742L45.8,89.119l.427.057-1.035-.568,2.525-.123-.738-.535,1.085-.21.2,1.015-.748.581Z" transform="translate(-43.881 -84.675)"/><path class="o" d="M55.881,88.714s-.34-.547-.746-.629l-.776-.156-.15-.545a1.868,1.868,0,0,0,.621.44A1.754,1.754,0,0,0,56,87.734c.037-.012.151-.077.254-.13A2.511,2.511,0,0,1,55.881,88.714Z" transform="translate(-46.713 -84.563)"/><path class="o" d="M53.507,86.347a4.652,4.652,0,0,1-.925-.67,2.247,2.247,0,0,0-1.229-.516l.53-.117s-.807-.377-1.262.062-.276,1.868-.271,1.912h0c-.019-.048-.554-1.369-.165-1.933s1.663-.589,1.663-.589a5.575,5.575,0,0,0,1.128,1.382C53.2,86.06,53.375,86.218,53.507,86.347Z" transform="translate(-45.405 -83.656)"/><path class="k" d="M56.437,87a4.456,4.456,0,0,0-1.037-.357l-.053-.306A5.321,5.321,0,0,1,56.437,87Z" transform="translate(-47.071 -84.234)"/><path class="o" d="M59.939,89.036c-.136-1.35-.763-1.366-1.286-1.433a1.225,1.225,0,0,0-.276-.006l0-.005c.494-.536.661-.5.661-.5a3.153,3.153,0,0,1,.788.836A2.32,2.32,0,0,1,59.939,89.036Z" transform="translate(-48.022 -84.47)"/><path class="s" d="M57.033,92.965a4.9,4.9,0,0,0,.512-2.638,3.151,3.151,0,0,1,.74-.51,3.38,3.38,0,0,1-.158,1.4l.134-.179A4.848,4.848,0,0,1,57.033,92.965Z" transform="translate(-47.6 -85.327)"/><path class="s" d="M52.87,91.491c-2.1-1.357-2.135-2.986-1.969-3.387a2.727,2.727,0,0,1,.669-.82,5.42,5.42,0,0,0,1.3,4.207Z" transform="translate(-45.655 -84.531)"/><path class="s" d="M49.3,93.569c-1.414.344-2.987-1.023-2.987-1.023s-.387-1-.079-1.309C46.857,92.627,49.3,93.569,49.3,93.569Z" transform="translate(-44.17 -85.773)"/></g></g><path class="b" d="M102.735,52.679l.584.3A7.127,7.127,0,0,1,101.9,54.8c-.747.591.759-2,.759-2" transform="translate(-42.399 -23.775)"/></svg>