<svg xmlns="http://www.w3.org/2000/svg" width="189.19" height="65.43" viewBox="0 0 189.19 65.43"><defs><style>.a,.g{fill:#93bf31;}.a{font-size:46px;}.a,.b{font-family:Raleway-BoldItalic, Raleway;font-weight:700;font-style:italic;}.b,.c{fill:#1a1818;}.b{font-size:6px;}.d{fill:#aeb0b3;}.d,.e,.f,.g,.h{fill-rule:evenodd;}.e,.h{fill:#0080c0;}.f{fill:#e50019;}.h{stroke:#0080c0;stroke-miterlimit:10;stroke-width:2px;}</style></defs><g transform="translate(1.645)"><text class="a" transform="translate(78.545 44.721)"><tspan x="0" y="0">EŠZS</tspan></text><g transform="translate(78.668 48.697)"><text class="b" transform="translate(0 6)"><tspan x="0" y="0">E-ŠPORTNA ZVEZA SLOVENIJE</tspan></text><g transform="translate(0.704 6.476)"><path class="c" d="M107.017-40.824H106.9l-.087-.112h.1l.048.06.048-.06h.1Z" transform="translate(-106.818 40.936)"/></g></g><g transform="translate(1.95 0)"><path class="d" d="M76.249-99.875l5.281,8.286C64.87-73.392,34.446-58.706,13.489-66.6,41.542-64.5,65.541-86.439,76.249-99.875Z" transform="translate(-12.522 106.766)"/><path class="e" d="M84.451-80.19l3.3,8.452a84.97,84.97,0,0,1-33.882,14.49q-1.309-2.381-2.426-4.837C65.256-66.1,77.251-74.089,84.451-80.19Z" transform="translate(-19.385 103.207)"/><path class="e" d="M39.273-51.616c-10,1.061-19.593-.208-26.964-4.778a51.981,51.981,0,0,0,24.286.537Q37.876-53.674,39.273-51.616Z" transform="translate(-12.309 98.904)"/><path class="f" d="M83.879-61.524l1.466,8.136a77.018,77.018,0,0,1-26.033,6.761q-1.836-2.475-3.4-5.1A88.158,88.158,0,0,0,83.879-61.524Z" transform="translate(-20.192 99.832)"/><path class="f" d="M44.141-44.307c-11.76.2-23-2.521-30.23-9.249,8.457,4.231,17.635,5.264,26.412,4.534C41.538-47.366,42.811-45.789,44.141-44.307Z" transform="translate(-12.599 98.391)"/><path class="g" d="M65.337-42.857C44.1-49.968,29.781-80.565,28.351-105.2l9.327-3.092C37.5-91.107,42.254-58.939,65.337-42.857Z" transform="translate(-15.21 108.287)"/></g><g transform="translate(30.648 4.267)"><path class="e" d="M57.3-102.429a2.986,2.986,0,0,1,.653,4.389,3.551,3.551,0,0,1-4.733.573,2.986,2.986,0,0,1-.654-4.389A3.552,3.552,0,0,1,57.3-102.429Z" transform="translate(-48.161 103.079)"/><path class="e" d="M52.761-92.693a2.987,2.987,0,0,1,.653,4.389,3.551,3.551,0,0,1-4.733.573,2.986,2.986,0,0,1-.654-4.389A3.553,3.553,0,0,1,52.761-92.693Z" transform="translate(-47.341 101.318)"/><path class="e" d="M67.9-98.209a2.987,2.987,0,0,1,.654,4.39,3.554,3.554,0,0,1-4.734.573,2.988,2.988,0,0,1-.654-4.39A3.554,3.554,0,0,1,67.9-98.209Z" transform="translate(-50.078 102.316)"/><path class="e" d="M63.538-88.243a2.988,2.988,0,0,1,.654,4.39,3.553,3.553,0,0,1-4.734.573A2.987,2.987,0,0,1,58.8-87.67,3.553,3.553,0,0,1,63.538-88.243Z" transform="translate(-49.289 100.514)"/></g><g transform="translate(0 20.433)"><path class="h" d="M17.063-83.344,13.571-81.4a37.221,37.221,0,0,0,5.444,11.808q1.488-.073,2.951-.291A42.626,42.626,0,0,1,17.063-83.344Z" transform="translate(-10.587 83.344)"/><path class="h" d="M23.264-79.76l.854,3.9a37.24,37.24,0,0,1-12.454,3.733q-.931-1.162-1.736-2.4A42.636,42.636,0,0,0,23.264-79.76Z" transform="translate(-9.928 82.696)"/></g></g></svg>