<svg xmlns="http://www.w3.org/2000/svg" width="35.02" height="35.02" viewBox="0 0 35.02 35.02"><defs><style>.a{fill:#192c41;}.b{fill:#fff;}</style></defs><g transform="translate(-8833 -2330)"><g transform="translate(8833 2330)"><path class="a" d="M1702.623,4006.42a105.854,105.854,0,0,1-22.493,0,6.378,6.378,0,0,1-5.664-5.665,105.818,105.818,0,0,1,0-22.492,6.379,6.379,0,0,1,5.664-5.665,105.919,105.919,0,0,1,22.493,0,6.379,6.379,0,0,1,5.664,5.665,105.834,105.834,0,0,1,0,22.492,6.378,6.378,0,0,1-5.664,5.665Z" transform="translate(-1673.867 -3972)"/></g><path class="b" d="M1412.794,7451v-1.731a.917.917,0,0,1,.957-1.04h2.429v-3.706l-3.343-.014a4.221,4.221,0,0,0-4.554,4.535V7451h-2.146v4.328h2.164v10.819h4.328v-10.819h3.212l.394-4.328Z" transform="translate(7439.864 -5107.514)"/></g></svg>