<svg xmlns="http://www.w3.org/2000/svg" width="35.02" height="35.02" viewBox="0 0 35.02 35.02"><defs><style>.a{fill:#192c41;}.b{fill:#fff;}</style></defs><g transform="translate(-8885 -2350)"><g transform="translate(8885 2350)"><path class="a" d="M1702.623,4006.42a105.854,105.854,0,0,1-22.493,0,6.378,6.378,0,0,1-5.664-5.665,105.818,105.818,0,0,1,0-22.492,6.379,6.379,0,0,1,5.664-5.665,105.919,105.919,0,0,1,22.493,0,6.379,6.379,0,0,1,5.664,5.665,105.834,105.834,0,0,1,0,22.492,6.378,6.378,0,0,1-5.664,5.665Z" transform="translate(-1673.867 -3972)"/></g><g transform="translate(7438.276 -5087.811)"><path class="b" d="M1460.848,7463.183Zm9.1-16.1Z" transform="translate(-1.161 -0.24)"/><g transform="translate(1458.561 7449.562)"><path class="b" d="M1465.132,7461.786a5.674,5.674,0,1,0-5.674-5.672A5.68,5.68,0,0,0,1465.132,7461.786Zm-4.3-5.672a4.3,4.3,0,1,1,4.3,4.3A4.3,4.3,0,0,1,1460.834,7456.114Z" transform="translate(-1459.458 -7450.439)"/></g><path class="b" d="M1469.893,7464.659h-11.317a3.856,3.856,0,0,1-3.852-3.852v-11.145a3.856,3.856,0,0,1,3.852-3.852h11.317a3.856,3.856,0,0,1,3.852,3.852v11.145A3.856,3.856,0,0,1,1469.893,7464.659Zm-11.317-17.443a2.45,2.45,0,0,0-2.447,2.447v11.145a2.449,2.449,0,0,0,2.447,2.446h11.317a2.449,2.449,0,0,0,2.447-2.446v-11.145a2.45,2.45,0,0,0-2.447-2.447Z"/></g></g></svg>