<svg xmlns="http://www.w3.org/2000/svg" width="35.02" height="35.02" viewBox="0 0 35.02 35.02"><defs><style>.a{fill:#192c41;}.b{fill:#fff;}</style></defs><path class="a" d="M1702.623,4006.42a105.854,105.854,0,0,1-22.493,0,6.378,6.378,0,0,1-5.664-5.665,105.818,105.818,0,0,1,0-22.492,6.379,6.379,0,0,1,5.664-5.665,105.919,105.919,0,0,1,22.493,0,6.379,6.379,0,0,1,5.664,5.665,105.834,105.834,0,0,1,0,22.492,6.378,6.378,0,0,1-5.664,5.665Z" transform="translate(-1673.867 -3972)"/><rect class="b" width="4.637" height="14.376" transform="translate(6.933 13.988)"/><path class="b" d="M1695.675,3983.692a6.019,6.019,0,0,0-5.267,2.464V3984h-4.273v14.375h4.637v-7.221c0-2.087.96-3.709,2.783-3.709s2.12,2.021,2.12,4.5v6.426h4.637V3988.33a4.638,4.638,0,0,0-4.637-4.638Z" transform="translate(-1671.783 -3970.014)"/><path class="b" d="M1684.936,3980.451a2.76,2.76,0,1,1-2.76-2.761A2.76,2.76,0,0,1,1684.936,3980.451Z" transform="translate(-1672.925 -3971.033)"/></svg>