<svg xmlns="http://www.w3.org/2000/svg" width="74" height="74" viewBox="0 0 74 74"><defs><style>.a,.d{fill:#fff;}.a,.c{fill-rule:evenodd;}.b,.c{fill:#eafe70;}</style></defs><g transform="translate(539.629 -749.306)"><path class="a" d="M-416.869,761.54H-405.5v12.532h-5.384l-6.165,10.145H-405.5v12.532h-19.169l-6.509,10.742h44.8V750.8h-23.906Zm9.88,1.492v9.548h-4.731l-7.978,13.129h12.709v9.548h-18.517l-8.317,13.726h48.936V749.306h-26.234l-8.412,13.726Z" transform="translate(-81.338)"/><path class="b" d="M-491.29,772.58l-22.073,36.4h-24.475l14.189-24.071c-10.486-2.006-15.979-6.62-15.979-15.947,0-13.139,9.188-19.658,27.664-19.658h21.272l-8.355,13.726h-12.618a4.65,4.65,0,0,0-4.993,4.784,4.635,4.635,0,0,0,4.993,4.764Z"/><path class="c" d="M-493.348,750.8h-18.617c-9.108,0-15.657,1.615-19.9,4.626-4.144,2.944-6.276,7.363-6.276,13.54,0,4.344,1.264,7.408,3.6,9.642,2.386,2.285,6.055,3.862,11.17,4.84l2.081.4-13.938,23.647H-514.2l20.264-33.419h-17.726a6.293,6.293,0,0,1-5.049-2.169,6.472,6.472,0,0,1-1.436-4.087,6.509,6.509,0,0,1,1.434-4.094,6.283,6.283,0,0,1,5.052-2.182h11.779Zm-44.49,58.185h24.475l22.073-36.4h-20.376a4.635,4.635,0,0,1-4.993-4.764,4.65,4.65,0,0,1,4.993-4.784h12.618l8.355-13.726h-21.272c-18.476,0-27.664,6.519-27.664,19.658,0,8.859,4.955,13.466,14.437,15.625q.752.171,1.542.322Z"/><path class="d" d="M-528.7,1031.42h2.251c.995,0,1.318.452,1.318.993,0,.565-.311,1.043-1.331,1.043H-528.7Zm3.719,6.873h3.507l-2.139-3.292a2.8,2.8,0,0,0,1.841-2.7c0-1.445-.883-2.927-3.93-2.927h-6.181v8.921h3.184v-2.915h1.853Z" transform="translate(-5.952 -215.301)"/><path class="d" d="M-478.444,1036.131v-1.344h5.833V1032.8h-5.833v-1.269h6.044v-2.161h-9.228v8.921h9.315v-2.161Z" transform="translate(-44.588 -215.3)"/><path class="d" d="M-434.44,1038.293h3.855l4.228-8.921h-3.532l-2.313,5.491a4.562,4.562,0,0,0-.286.955h-.05a4.576,4.576,0,0,0-.286-.955l-2.313-5.491h-3.532Z" transform="translate(-77.614 -215.301)"/><path class="d" d="M-378.293,1036.131v-1.344h5.833V1032.8h-5.833v-1.269h6.044v-2.161h-9.228v8.921h9.315v-2.161Z" transform="translate(-121.58 -215.3)"/><path class="d" d="M-330.921,1031.42h2.251c.995,0,1.318.452,1.318.993,0,.565-.311,1.043-1.331,1.043h-2.238Zm3.718,6.873h3.507l-2.139-3.292a2.8,2.8,0,0,0,1.841-2.7c0-1.445-.883-2.927-3.93-2.927h-6.181v8.921h3.184v-2.915h1.853Z" transform="translate(-157.997 -215.301)"/><rect class="d" width="3.184" height="8.921" transform="translate(-480.479 814.071)"/><path class="d" d="M-261.32,1037.562c3.321,0,5.31-1.168,5.31-3.242,0-1.709-1.02-2.45-3.569-2.714l-2.276-.226c-.883-.1-1.144-.239-1.144-.591,0-.415.56-.628,1.617-.628a5.585,5.585,0,0,1,3.544,1.106l1.753-1.885a8.891,8.891,0,0,0-5.124-1.37c-3.134,0-4.925,1.093-4.925,2.915,0,1.734,1.094,2.563,3.333,2.839l2.637.314c.746.088.97.214.97.553,0,.477-.622.729-1.94.729a5.776,5.776,0,0,1-3.768-1.458l-2.052,1.809A8.589,8.589,0,0,0-261.32,1037.562Z" transform="translate(-209.619 -214.256)"/></g></svg>