<svg xmlns="http://www.w3.org/2000/svg" width="45.102" height="60.141" viewBox="0 0 45.102 60.141"><defs><style>.a{fill:#fff;}.b{fill:#eafe70;}</style></defs><g transform="translate(-1764 -660)"><g transform="translate(845.456 -261)"><g transform="translate(936.97 964.155)"><path class="a" d="M960.667,1000.333v.825l-4.125,4.125-4.125-4.125v-.825l4.125,4.125Z" transform="translate(-952.417 -1000.333)"/><g transform="translate(0 3.565)"><path class="a" d="M960.667,1006.888v.825l-4.125,4.125-4.125-4.125v-.825l4.125,4.125Z" transform="translate(-952.417 -1006.888)"/></g></g><g transform="translate(918.544 921)"><g transform="translate(0 25.457)"><path class="b" d="M918.544,974.3v-.218a.2.2,0,0,1,.218-.218h1.347c.141,0,.218.064.218.166v.18c0,.654.654,1.219,1.694,1.219.975,0,1.334-.487,1.334-1,0-.654-.654-.886-1.873-1.334-1.334-.462-2.874-1.065-2.874-2.759,0-1.579,1.3-2.541,3.131-2.541,1.976,0,3.375,1.1,3.375,2.759v.128a.2.2,0,0,1-.218.218h-1.347c-.141,0-.218-.052-.218-.129v-.128c0-.667-.577-1.3-1.655-1.3-.821,0-1.283.359-1.283.962,0,.667.565.9,1.989,1.4,1.168.424,2.785.924,2.785,2.669,0,1.566-1.271,2.605-3.286,2.605S918.544,975.935,918.544,974.3Z" transform="translate(-918.544 -967.799)"/><path class="b" d="M932.72,973.869V970.9a3.037,3.037,0,0,1,3.337-3.106c1.989,0,3.324,1.18,3.324,2.964,0,.077-.077.128-.206.141l-1.373.09c-.141.012-.231-.026-.231-.064v-.077a1.521,1.521,0,0,0-3.042,0v3.093a1.521,1.521,0,0,0,3.042,0c0-.09.077-.154.218-.141l1.373.064c.128.013.218.026.218.064V974c0,1.8-1.335,2.99-3.324,2.99A3.046,3.046,0,0,1,932.72,973.869Z" transform="translate(-925.009 -967.799)"/><path class="b" d="M952.114,976.793l-1.579-3.49a.1.1,0,0,0-.089-.064h-1.168a.068.068,0,0,0-.077.077v3.426a.2.2,0,0,1-.218.218H947.61a.2.2,0,0,1-.218-.218v-8.559a.2.2,0,0,1,.218-.218h3.606a2.576,2.576,0,0,1,2.746,2.708,2.394,2.394,0,0,1-1.642,2.387.064.064,0,0,0-.039.1l1.694,3.542c.077.141.012.257-.154.257h-1.45A.281.281,0,0,1,952.114,976.793Zm-2.913-7.186v2.156a.074.074,0,0,0,.077.077h1.668a1.127,1.127,0,0,0,1.219-1.142,1.139,1.139,0,0,0-1.219-1.168h-1.668A.068.068,0,0,0,949.2,969.606Z" transform="translate(-931.7 -967.874)"/><path class="b" d="M961.545,973.766V971.02a3.385,3.385,0,0,1,6.763,0v2.746a3.384,3.384,0,0,1-6.763,0Zm4.953.065v-2.824a1.574,1.574,0,1,0-3.144,0v2.824a1.573,1.573,0,1,0,3.144,0Z" transform="translate(-938.154 -967.799)"/><path class="b" d="M976.523,976.752v-8.547a.2.2,0,0,1,.218-.218h1.373a.2.2,0,0,1,.218.218v7.135a.068.068,0,0,0,.077.077h4.119a.2.2,0,0,1,.218.219v1.116a.2.2,0,0,1-.218.218h-5.787A.2.2,0,0,1,976.523,976.752Z" transform="translate(-944.984 -967.885)"/><path class="b" d="M990.015,976.752v-8.547a.2.2,0,0,1,.218-.218h1.373a.2.2,0,0,1,.218.218v7.135a.068.068,0,0,0,.077.077h4.119a.2.2,0,0,1,.218.219v1.116a.2.2,0,0,1-.218.218h-5.787A.2.2,0,0,1,990.015,976.752Z" transform="translate(-951.137 -967.885)"/></g><path class="a" d="M929.745,923.928a2.485,2.485,0,0,1,2.482-2.482h27.545a2.485,2.485,0,0,1,2.482,2.482V942.6h.445V923.927A2.927,2.927,0,0,0,959.773,921H932.227a2.927,2.927,0,0,0-2.927,2.927V942.6h.445Z" transform="translate(-923.449 -921)"/><path class="a" d="M962.254,1009.775a2.484,2.484,0,0,1-2.482,2.481H932.227a2.484,2.484,0,0,1-2.482-2.481V990.208H929.3v19.567a2.927,2.927,0,0,0,2.927,2.927h27.545a2.927,2.927,0,0,0,2.927-2.927V990.208h-.445Z" transform="translate(-923.449 -952.561)"/></g></g></g></svg>