<svg xmlns="http://www.w3.org/2000/svg" width="173.481" height="46.087" viewBox="0 0 173.481 46.087"><defs><style>.a{fill:#fff;}</style></defs><g transform="translate(-1326.01 -2807)"><g transform="translate(1326.01 2807)"><g transform="translate(52.886 12.287)"><path class="a" d="M1031.376,406.023h-6.685a2.1,2.1,0,0,0-1.557.648,2.2,2.2,0,0,0,1.556,3.759h.23a6.477,6.477,0,0,1,2.588.522,6.665,6.665,0,0,1,3.539,3.526,6.406,6.406,0,0,1,.524,2.579,6.55,6.55,0,0,1-.522,2.6,6.611,6.611,0,0,1-3.526,3.542,6.428,6.428,0,0,1-2.579.522h-6.66v-4.44h6.66a2.166,2.166,0,0,0,1.567-.637,2.122,2.122,0,0,0,.653-1.583,2.085,2.085,0,0,0-.653-1.551,2.166,2.166,0,0,0-1.567-.637h-.229a6.422,6.422,0,0,1-2.579-.522,6.611,6.611,0,0,1-3.526-3.542,6.542,6.542,0,0,1-.522-2.6,6.425,6.425,0,0,1,.522-2.579,6.654,6.654,0,0,1,3.526-3.526,6.432,6.432,0,0,1,2.579-.522h6.66Z" transform="translate(-1018.089 -401.583)"/><path class="a" d="M1257.357,406.023h-4.9v17.694h-4.407V406.023h-4.93v-4.44h14.234Z" transform="translate(-1228.563 -401.583)"/><path class="a" d="M1489.207,401.583a6.488,6.488,0,0,1,2.606.522,6.645,6.645,0,0,1,3.518,3.526,6.445,6.445,0,0,1,.521,2.579v15.507h-4.407v-6.236h-5.256v6.236h-4.407V408.21a6.445,6.445,0,0,1,.521-2.579,6.861,6.861,0,0,1,1.4-2.106,6.507,6.507,0,0,1,2.084-1.42,6.408,6.408,0,0,1,2.573-.522h.847Zm-.812,4.44a2.161,2.161,0,0,0-1.541.637,2.064,2.064,0,0,0-.665,1.551v5.126h5.256V408.21a2.168,2.168,0,0,0-2.206-2.187Z" transform="translate(-1451.78 -401.583)"/><path class="a" d="M1740.5,411.392v6.154a6.472,6.472,0,0,1-.521,2.586,6.652,6.652,0,0,1-3.518,3.535,6.389,6.389,0,0,1-2.573.523h-.781a6.4,6.4,0,0,1-2.573-.522,6.649,6.649,0,0,1-3.518-3.526,6.444,6.444,0,0,1-.521-2.579v-8.847a6.466,6.466,0,0,1,.518-2.579,6.723,6.723,0,0,1,1.41-2.106,6.653,6.653,0,0,1,2.093-1.42,6.394,6.394,0,0,1,2.573-.522h5.289v4.44h-5.289a2.112,2.112,0,0,0-1.551.635,2.141,2.141,0,0,0-.637,1.579v8.826a2.094,2.094,0,0,0,.641,1.547,2.132,2.132,0,0,0,1.56.635h.789a2.131,2.131,0,0,0,1.56-.637,2.1,2.1,0,0,0,.641-1.551v-1.73H1732.3v-4.44Z" transform="translate(-1680.658 -402.055)"/><path class="a" d="M1981.549,424.19h-12.863v-22.1h12.863v4.44h-8.456v4.407h6.333v4.44h-6.333v4.375h8.456Z" transform="translate(-1907.181 -402.055)"/><path class="a" d="M2204.325,408.243v8.847a6.437,6.437,0,0,1-.522,2.579,6.657,6.657,0,0,1-3.526,3.526,6.428,6.428,0,0,1-2.579.522h-.881a6.425,6.425,0,0,1-2.579-.522,6.652,6.652,0,0,1-3.526-3.526,6.42,6.42,0,0,1-.522-2.579v-8.847a6.537,6.537,0,0,1,.522-2.6,6.609,6.609,0,0,1,3.526-3.542,6.433,6.433,0,0,1,2.579-.522h.881a6.435,6.435,0,0,1,2.579.522,6.613,6.613,0,0,1,3.526,3.542A6.554,6.554,0,0,1,2204.325,408.243Zm-4.408,8.847v-8.847a2.142,2.142,0,0,0-.641-1.583,2.169,2.169,0,0,0-1.593-.637h-.887a2.18,2.18,0,0,0-2.2,2.22v8.847a2.1,2.1,0,0,0,.64,1.551,2.131,2.131,0,0,0,1.561.637h.887a2.169,2.169,0,0,0,1.593-.637A2.1,2.1,0,0,0,2199.917,417.09Z" transform="translate(-2114.352 -401.583)"/><path class="a" d="M2450.521,424.19h-4.407l-5.289-10.741V424.19h-4.407v-22.1h4.407l5.289,11.2v-11.2h4.407Z" transform="translate(-2344.65 -402.055)"/><path class="a" d="M2696.014,424.19h-12.863v-22.1h12.863v4.44h-8.456v4.407h6.334v4.44h-6.334v4.375h8.456Z" transform="translate(-2575.419 -402.055)"/></g><g transform="translate(0 0)"><path class="a" d="M200.706,234.721a23.043,23.043,0,1,1,23.043,23.043A23.07,23.07,0,0,1,200.706,234.721Zm41.868,0a18.824,18.824,0,1,0-18.824,18.824A18.846,18.846,0,0,0,242.574,234.721Z" transform="translate(-200.706 -211.677)"/><g transform="translate(8.889 12.286)"><path class="a" d="M338.089,408.352a5.961,5.961,0,0,1,.615-2.661,6.934,6.934,0,0,1,1.654-2.152,7.958,7.958,0,0,1,2.436-1.441,8.367,8.367,0,0,1,2.976-.529h19.794v5.061h-5.389V423.7h-5.626V406.63h-8.807a2.09,2.09,0,0,0-1.454.527,1.557,1.557,0,0,0-.574,1.211,1.541,1.541,0,0,0,.57,1.223,2.125,2.125,0,0,0,1.457.516h.253a8.414,8.414,0,0,1,2.985.528,7.976,7.976,0,0,1,2.443,1.442,6.911,6.911,0,0,1,1.661,2.152,5.948,5.948,0,0,1,.617,2.661,6.065,6.065,0,0,1-.614,2.674,6.882,6.882,0,0,1-1.656,2.17A7.942,7.942,0,0,1,349,423.175a8.359,8.359,0,0,1-2.976.53H338.3v-5.061h7.716a2.172,2.172,0,0,0,1.472-.521,1.548,1.548,0,0,0,.582-1.233,1.516,1.516,0,0,0-.583-1.2,2.172,2.172,0,0,0-1.472-.521h-.251a8.342,8.342,0,0,1-2.976-.53,7.921,7.921,0,0,1-2.436-1.441,6.857,6.857,0,0,1-1.656-2.17A6.057,6.057,0,0,1,338.089,408.352Z" transform="translate(-338.089 -401.569)"/></g></g></g></g></svg>