<svg xmlns="http://www.w3.org/2000/svg" width="35.02" height="35.02" viewBox="0 0 35.02 35.02"><defs><style>.a{fill:#192c41;}.b{fill:#fff;}</style></defs><g transform="translate(-8965 -2328)"><g transform="translate(8965 2328)"><path class="a" d="M1702.623,4006.42a105.854,105.854,0,0,1-22.493,0,6.378,6.378,0,0,1-5.664-5.665,105.818,105.818,0,0,1,0-22.492,6.379,6.379,0,0,1,5.664-5.665,105.919,105.919,0,0,1,22.493,0,6.379,6.379,0,0,1,5.664,5.665,105.834,105.834,0,0,1,0,22.492,6.378,6.378,0,0,1-5.664,5.665Z" transform="translate(-1673.867 -3972)"/></g><g transform="translate(7998 2148.004)"><path class="b" d="M992.655,189.115c0-.04-.007-.079-.011-.119H977.13q-.452,1.223-.9,2.446c-.071.191-.15.379-.226.568v11.884l4.153,0h.23v2.633h2.123a.581.581,0,0,1,.057-.1q1.048-1.21,2.1-2.419a.311.311,0,0,1,.263-.117c1.039,0,2.078,0,3.116,0a.428.428,0,0,0,.266-.106q2.124-2,4.237-4.016a.358.358,0,0,0,.108-.229Q992.659,194.328,992.655,189.115Zm-1.866,9.915q-1.039,1.043-2.068,2.1a.449.449,0,0,1-.358.145c-1.25,0-2.5,0-3.749-.007a.458.458,0,0,0-.39.182c-.637.746-1.283,1.486-1.925,2.227-.041.047-.084.092-.161.176v-2.575h-3.492V190.759h12.249c0,.059.008.12.008.18q0,3.9,0,7.807A.365.365,0,0,1,990.789,199.03Z"/><path class="b" d="M1155.392,321.731h1.732V317.37h-1.732Z" transform="translate(-173.248 -123.977)"/><path class="b" d="M1283.5,321.594h1.731v-4.362H1283.5Z" transform="translate(-296.971 -123.844)"/></g></g></svg>