<svg xmlns="http://www.w3.org/2000/svg" width="35.02" height="35.02" viewBox="0 0 35.02 35.02"><defs><style>.a{fill:#192c41;}.b{fill:#fff;}</style></defs><g transform="translate(-8931 -2354)"><g transform="translate(8931 2354)"><path class="a" d="M1702.623,4006.42a105.854,105.854,0,0,1-22.493,0,6.378,6.378,0,0,1-5.664-5.665,105.818,105.818,0,0,1,0-22.492,6.379,6.379,0,0,1,5.664-5.665,105.919,105.919,0,0,1,22.493,0,6.379,6.379,0,0,1,5.664,5.665,105.834,105.834,0,0,1,0,22.492,6.378,6.378,0,0,1-5.664,5.665Z" transform="translate(-1673.867 -3972)"/></g><path class="b" d="M184.849,266.772c-1.532-.027-2.935-.026-4.335-.085a30.115,30.115,0,0,1-3.163-.266A2.671,2.671,0,0,1,175,263.98a28.281,28.281,0,0,1-.242-4.917c.018-.858.064-1.715.129-2.571a7.952,7.952,0,0,1,.216-1.389,2.526,2.526,0,0,1,2.175-1.947,22.053,22.053,0,0,1,3.062-.263q3.43-.079,6.862-.058c1.393.011,2.786.114,4.179.189a7.682,7.682,0,0,1,1.1.146,2.455,2.455,0,0,1,2.049,2.032,18.8,18.8,0,0,1,.338,3.115,30.646,30.646,0,0,1-.18,5.221,6.542,6.542,0,0,1-.172.929,2.525,2.525,0,0,1-2.16,1.938,26.365,26.365,0,0,1-3.083.264C187.752,266.733,186.236,266.742,184.849,266.772Zm-1.961-3.88,5.053-3.112-5.053-3.111Z" transform="translate(8763.256 2112.169)"/></g></svg>